<svg width="1000" height="500" fill="none" xmlns="http://www.w3.org/2000/svg"><path d="M0 0l212.719 318.705c97.093 148.227 277.385 214.96 445.141 164.766l370.27-110.79c64.73-19.368 92.44-97.196 54.98-154.389L945.52 14.294A410.675 410.675 0 0 0 935.721 0H0z" fill="url(#paint0_linear)"/><mask id="a" maskUnits="userSpaceOnUse" x="0" y="0" width="1100" height="500"><path d="M0 0l212.719 318.705c97.093 148.227 277.385 214.96 445.141 164.766l370.27-110.79c64.73-19.368 92.44-97.196 54.98-154.389L945.52 14.294A410.675 410.675 0 0 0 935.721 0H0z" fill="url(#paint1_linear)"/></mask><g opacity=".1" fill="#000" mask="url(#a)"><path d="M11 9.5a1.5 1.5 0 1 1-3 0 1.5 1.5 0 0 1 3 0zM31 9.5a1.5 1.5 0 1 1-3 0 1.5 1.5 0 0 1 3 0zM51 9.5a1.5 1.5 0 1 1-3 0 1.5 1.5 0 0 1 3 0zM71 9.5a1.5 1.5 0 1 1-3 0 1.5 1.5 0 0 1 3 0zM91 9.5a1.5 1.5 0 1 1-3 0 1.5 1.5 0 0 1 3 0zM111 9.5a1.5 1.5 0 1 1-3 0 1.5 1.5 0 0 1 3 0zM131 9.5a1.5 1.5 0 1 1-3 0 1.5 1.5 0 0 1 3 0zM151 9.5a1.5 1.5 0 1 1-3 0 1.5 1.5 0 0 1 3 0zM171 9.5a1.5 1.5 0 1 1-3 0 1.5 1.5 0 0 1 3 0zM191 9.5a1.5 1.5 0 1 1-3 0 1.5 1.5 0 0 1 3 0zM211 9.5a1.5 1.5 0 1 1-3 0 1.5 1.5 0 0 1 3 0zM231 9.5a1.5 1.5 0 1 1-3 0 1.5 1.5 0 0 1 3 0zM251 9.5a1.5 1.5 0 1 1-3 0 1.5 1.5 0 0 1 3 0zM271 9.5a1.5 1.5 0 1 1-3 0 1.5 1.5 0 0 1 3 0zM291 9.5a1.5 1.5 0 1 1-3 0 1.5 1.5 0 0 1 3 0zM11 29.5a1.5 1.5 0 1 1-3 0 1.5 1.5 0 0 1 3 0zM31 29.5a1.5 1.5 0 1 1-3 0 1.5 1.5 0 0 1 3 0zM51 29.5a1.5 1.5 0 1 1-3 0 1.5 1.5 0 0 1 3 0zM71 29.5a1.5 1.5 0 1 1-3 0 1.5 1.5 0 0 1 3 0zM91 29.5a1.5 1.5 0 1 1-3 0 1.5 1.5 0 0 1 3 0zM111 29.5a1.5 1.5 0 1 1-3 0 1.5 1.5 0 0 1 3 0zM131 29.5a1.5 1.5 0 1 1-3 0 1.5 1.5 0 0 1 3 0zM151 29.5a1.5 1.5 0 1 1-3 0 1.5 1.5 0 0 1 3 0zM171 29.5a1.5 1.5 0 1 1-3 0 1.5 1.5 0 0 1 3 0zM191 29.5a1.5 1.5 0 1 1-3 0 1.5 1.5 0 0 1 3 0zM211 29.5a1.5 1.5 0 1 1-3 0 1.5 1.5 0 0 1 3 0zM231 29.5a1.5 1.5 0 1 1-3 0 1.5 1.5 0 0 1 3 0zM251 29.5a1.5 1.5 0 1 1-3 0 1.5 1.5 0 0 1 3 0zM271 29.5a1.5 1.5 0 1 1-3 0 1.5 1.5 0 0 1 3 0zM291 29.5a1.5 1.5 0 1 1-3 0 1.5 1.5 0 0 1 3 0zM11 49.5a1.5 1.5 0 1 1-3 0 1.5 1.5 0 0 1 3 0zM31 49.5a1.5 1.5 0 1 1-3 0 1.5 1.5 0 0 1 3 0zM51 49.5a1.5 1.5 0 1 1-3 0 1.5 1.5 0 0 1 3 0zM71 49.5a1.5 1.5 0 1 1-3 0 1.5 1.5 0 0 1 3 0zM91 49.5a1.5 1.5 0 1 1-3 0 1.5 1.5 0 0 1 3 0zM111 49.5a1.5 1.5 0 1 1-3 0 1.5 1.5 0 0 1 3 0zM131 49.5a1.5 1.5 0 1 1-3 0 1.5 1.5 0 0 1 3 0zM151 49.5a1.5 1.5 0 1 1-3 0 1.5 1.5 0 0 1 3 0zM171 49.5a1.5 1.5 0 1 1-3 0 1.5 1.5 0 0 1 3 0zM191 49.5a1.5 1.5 0 1 1-3 0 1.5 1.5 0 0 1 3 0zM211 49.5a1.5 1.5 0 1 1-3 0 1.5 1.5 0 0 1 3 0zM231 49.5a1.5 1.5 0 1 1-3 0 1.5 1.5 0 0 1 3 0zM251 49.5a1.5 1.5 0 1 1-3 0 1.5 1.5 0 0 1 3 0zM271 49.5a1.5 1.5 0 1 1-3 0 1.5 1.5 0 0 1 3 0zM291 49.5a1.5 1.5 0 1 1-3 0 1.5 1.5 0 0 1 3 0zM11 69.5a1.5 1.5 0 1 1-3 0 1.5 1.5 0 0 1 3 0zM31 69.5a1.5 1.5 0 1 1-3 0 1.5 1.5 0 0 1 3 0zM51 69.5a1.5 1.5 0 1 1-3 0 1.5 1.5 0 0 1 3 0zM71 69.5a1.5 1.5 0 1 1-3 0 1.5 1.5 0 0 1 3 0zM91 69.5a1.5 1.5 0 1 1-3 0 1.5 1.5 0 0 1 3 0zM111 69.5a1.5 1.5 0 1 1-3 0 1.5 1.5 0 0 1 3 0zM131 69.5a1.5 1.5 0 1 1-3 0 1.5 1.5 0 0 1 3 0zM151 69.5a1.5 1.5 0 1 1-3 0 1.5 1.5 0 0 1 3 0zM171 69.5a1.5 1.5 0 1 1-3 0 1.5 1.5 0 0 1 3 0zM191 69.5a1.5 1.5 0 1 1-3 0 1.5 1.5 0 0 1 3 0zM211 69.5a1.5 1.5 0 1 1-3 0 1.5 1.5 0 0 1 3 0zM231 69.5a1.5 1.5 0 1 1-3 0 1.5 1.5 0 0 1 3 0zM251 69.5a1.5 1.5 0 1 1-3 0 1.5 1.5 0 0 1 3 0zM271 69.5a1.5 1.5 0 1 1-3 0 1.5 1.5 0 0 1 3 0zM291 69.5a1.5 1.5 0 1 1-3 0 1.5 1.5 0 0 1 3 0zM11 89.5a1.5 1.5 0 1 1-3 0 1.5 1.5 0 0 1 3 0zM31 89.5a1.5 1.5 0 1 1-3 0 1.5 1.5 0 0 1 3 0zM51 89.5a1.5 1.5 0 1 1-3 0 1.5 1.5 0 0 1 3 0zM71 89.5a1.5 1.5 0 1 1-3 0 1.5 1.5 0 0 1 3 0zM91 89.5a1.5 1.5 0 1 1-3 0 1.5 1.5 0 0 1 3 0zM111 89.5a1.5 1.5 0 1 1-3 0 1.5 1.5 0 0 1 3 0zM131 89.5a1.5 1.5 0 1 1-3 0 1.5 1.5 0 0 1 3 0zM151 89.5a1.5 1.5 0 1 1-3 0 1.5 1.5 0 0 1 3 0zM171 89.5a1.5 1.5 0 1 1-3 0 1.5 1.5 0 0 1 3 0zM191 89.5a1.5 1.5 0 1 1-3 0 1.5 1.5 0 0 1 3 0zM211 89.5a1.5 1.5 0 1 1-3 0 1.5 1.5 0 0 1 3 0zM231 89.5a1.5 1.5 0 1 1-3 0 1.5 1.5 0 0 1 3 0zM251 89.5a1.5 1.5 0 1 1-3 0 1.5 1.5 0 0 1 3 0zM271 89.5a1.5 1.5 0 1 1-3 0 1.5 1.5 0 0 1 3 0zM291 89.5a1.5 1.5 0 1 1-3 0 1.5 1.5 0 0 1 3 0zM11 109.5a1.5 1.5 0 1 1-3 0 1.5 1.5 0 0 1 3 0zM31 109.5a1.5 1.5 0 1 1-3 0 1.5 1.5 0 0 1 3 0zM51 109.5a1.5 1.5 0 1 1-3 0 1.5 1.5 0 0 1 3 0zM71 109.5a1.5 1.5 0 1 1-3 0 1.5 1.5 0 0 1 3 0zM91 109.5a1.5 1.5 0 1 1-3 0 1.5 1.5 0 0 1 3 0zM111 109.5a1.5 1.5 0 1 1-3.001-.001 1.5 1.5 0 0 1 3.001.001zM131 109.5a1.5 1.5 0 1 1-3.001-.001 1.5 1.5 0 0 1 3.001.001zM151 109.5a1.5 1.5 0 1 1-3.001-.001 1.5 1.5 0 0 1 3.001.001zM171 109.5a1.5 1.5 0 1 1-3.001-.001 1.5 1.5 0 0 1 3.001.001zM191 109.5a1.5 1.5 0 1 1-3.001-.001 1.5 1.5 0 0 1 3.001.001zM211 109.5a1.5 1.5 0 1 1-3.001-.001 1.5 1.5 0 0 1 3.001.001zM231 109.5a1.5 1.5 0 1 1-3.001-.001 1.5 1.5 0 0 1 3.001.001zM251 109.5a1.5 1.5 0 1 1-3.001-.001 1.5 1.5 0 0 1 3.001.001zM271 109.5a1.5 1.5 0 1 1-3.001-.001 1.5 1.5 0 0 1 3.001.001zM291 109.5a1.5 1.5 0 1 1-3.001-.001 1.5 1.5 0 0 1 3.001.001zM11 129.5a1.5 1.5 0 1 1-3 0 1.5 1.5 0 0 1 3 0zM31 129.5a1.5 1.5 0 1 1-3 0 1.5 1.5 0 0 1 3 0zM51 129.5a1.5 1.5 0 1 1-3 0 1.5 1.5 0 0 1 3 0zM71 129.5a1.5 1.5 0 1 1-3 0 1.5 1.5 0 0 1 3 0zM91 129.5a1.5 1.5 0 1 1-3 0 1.5 1.5 0 0 1 3 0zM111 129.5a1.5 1.5 0 1 1-3.001-.001 1.5 1.5 0 0 1 3.001.001zM131 129.5a1.5 1.5 0 1 1-3.001-.001 1.5 1.5 0 0 1 3.001.001zM151 129.5a1.5 1.5 0 1 1-3.001-.001 1.5 1.5 0 0 1 3.001.001zM171 129.5a1.5 1.5 0 1 1-3.001-.001 1.5 1.5 0 0 1 3.001.001zM191 129.5a1.5 1.5 0 1 1-3.001-.001 1.5 1.5 0 0 1 3.001.001zM211 129.5a1.5 1.5 0 1 1-3.001-.001 1.5 1.5 0 0 1 3.001.001zM231 129.5a1.5 1.5 0 1 1-3.001-.001 1.5 1.5 0 0 1 3.001.001zM251 129.5a1.5 1.5 0 1 1-3.001-.001 1.5 1.5 0 0 1 3.001.001zM271 129.5a1.5 1.5 0 1 1-3.001-.001 1.5 1.5 0 0 1 3.001.001zM291 129.5a1.5 1.5 0 1 1-3.001-.001 1.5 1.5 0 0 1 3.001.001zM11 149.5a1.5 1.5 0 1 1-3 0 1.5 1.5 0 0 1 3 0zM31 149.5a1.5 1.5 0 1 1-3 0 1.5 1.5 0 0 1 3 0zM51 149.5a1.5 1.5 0 1 1-3 0 1.5 1.5 0 0 1 3 0zM71 149.5a1.5 1.5 0 1 1-3 0 1.5 1.5 0 0 1 3 0zM91 149.5a1.5 1.5 0 1 1-3 0 1.5 1.5 0 0 1 3 0zM111 149.5a1.5 1.5 0 1 1-3.001-.001 1.5 1.5 0 0 1 3.001.001zM131 149.5a1.5 1.5 0 1 1-3.001-.001 1.5 1.5 0 0 1 3.001.001zM151 149.5a1.5 1.5 0 1 1-3.001-.001 1.5 1.5 0 0 1 3.001.001zM171 149.5a1.5 1.5 0 1 1-3.001-.001 1.5 1.5 0 0 1 3.001.001zM191 149.5a1.5 1.5 0 1 1-3.001-.001 1.5 1.5 0 0 1 3.001.001zM211 149.5a1.5 1.5 0 1 1-3.001-.001 1.5 1.5 0 0 1 3.001.001zM231 149.5a1.5 1.5 0 1 1-3.001-.001 1.5 1.5 0 0 1 3.001.001zM251 149.5a1.5 1.5 0 1 1-3.001-.001 1.5 1.5 0 0 1 3.001.001zM271 149.5a1.5 1.5 0 1 1-3.001-.001 1.5 1.5 0 0 1 3.001.001zM291 149.5a1.5 1.5 0 1 1-3.001-.001 1.5 1.5 0 0 1 3.001.001zM11 169.5a1.5 1.5 0 1 1-3 0 1.5 1.5 0 0 1 3 0zM31 169.5a1.5 1.5 0 1 1-3 0 1.5 1.5 0 0 1 3 0zM51 169.5a1.5 1.5 0 1 1-3 0 1.5 1.5 0 0 1 3 0zM71 169.5a1.5 1.5 0 1 1-3 0 1.5 1.5 0 0 1 3 0zM91 169.5a1.5 1.5 0 1 1-3 0 1.5 1.5 0 0 1 3 0zM111 169.5a1.5 1.5 0 1 1-3.001-.001 1.5 1.5 0 0 1 3.001.001zM131 169.5a1.5 1.5 0 1 1-3.001-.001 1.5 1.5 0 0 1 3.001.001zM151 169.5a1.5 1.5 0 1 1-3.001-.001 1.5 1.5 0 0 1 3.001.001zM171 169.5a1.5 1.5 0 1 1-3.001-.001 1.5 1.5 0 0 1 3.001.001zM191 169.5a1.5 1.5 0 1 1-3.001-.001 1.5 1.5 0 0 1 3.001.001zM211 169.5a1.5 1.5 0 1 1-3.001-.001 1.5 1.5 0 0 1 3.001.001zM231 169.5a1.5 1.5 0 1 1-3.001-.001 1.5 1.5 0 0 1 3.001.001zM251 169.5a1.5 1.5 0 1 1-3.001-.001 1.5 1.5 0 0 1 3.001.001zM271 169.5a1.5 1.5 0 1 1-3.001-.001 1.5 1.5 0 0 1 3.001.001zM291 169.5a1.5 1.5 0 1 1-3.001-.001 1.5 1.5 0 0 1 3.001.001zM11 189.5a1.5 1.5 0 1 1-3 0 1.5 1.5 0 0 1 3 0zM31 189.5a1.5 1.5 0 1 1-3 0 1.5 1.5 0 0 1 3 0zM51 189.5a1.5 1.5 0 1 1-3 0 1.5 1.5 0 0 1 3 0zM71 189.5a1.5 1.5 0 1 1-3 0 1.5 1.5 0 0 1 3 0zM91 189.5a1.5 1.5 0 1 1-3 0 1.5 1.5 0 0 1 3 0zM111 189.5a1.5 1.5 0 1 1-3.001-.001 1.5 1.5 0 0 1 3.001.001zM131 189.5a1.5 1.5 0 1 1-3.001-.001 1.5 1.5 0 0 1 3.001.001zM151 189.5a1.5 1.5 0 1 1-3.001-.001 1.5 1.5 0 0 1 3.001.001zM171 189.5a1.5 1.5 0 1 1-3.001-.001 1.5 1.5 0 0 1 3.001.001zM191 189.5a1.5 1.5 0 1 1-3.001-.001 1.5 1.5 0 0 1 3.001.001zM211 189.5a1.5 1.5 0 1 1-3.001-.001 1.5 1.5 0 0 1 3.001.001zM231 189.5a1.5 1.5 0 1 1-3.001-.001 1.5 1.5 0 0 1 3.001.001zM251 189.5a1.5 1.5 0 1 1-3.001-.001 1.5 1.5 0 0 1 3.001.001zM271 189.5a1.5 1.5 0 1 1-3.001-.001 1.5 1.5 0 0 1 3.001.001zM291 189.5a1.5 1.5 0 1 1-3.001-.001 1.5 1.5 0 0 1 3.001.001zM11 209.5a1.5 1.5 0 1 1-3 0 1.5 1.5 0 0 1 3 0zM31 209.5a1.5 1.5 0 1 1-3 0 1.5 1.5 0 0 1 3 0zM51 209.5a1.5 1.5 0 1 1-3 0 1.5 1.5 0 0 1 3 0zM71 209.5a1.5 1.5 0 1 1-3 0 1.5 1.5 0 0 1 3 0zM91 209.5a1.5 1.5 0 1 1-3 0 1.5 1.5 0 0 1 3 0zM111 209.5a1.5 1.5 0 1 1-3.001-.001 1.5 1.5 0 0 1 3.001.001zM131 209.5a1.5 1.5 0 1 1-3.001-.001 1.5 1.5 0 0 1 3.001.001zM151 209.5a1.5 1.5 0 1 1-3.001-.001 1.5 1.5 0 0 1 3.001.001zM171 209.5a1.5 1.5 0 1 1-3.001-.001 1.5 1.5 0 0 1 3.001.001zM191 209.5a1.5 1.5 0 1 1-3.001-.001 1.5 1.5 0 0 1 3.001.001zM211 209.5a1.5 1.5 0 1 1-3.001-.001 1.5 1.5 0 0 1 3.001.001zM231 209.5a1.5 1.5 0 1 1-3.001-.001 1.5 1.5 0 0 1 3.001.001zM251 209.5a1.5 1.5 0 1 1-3.001-.001 1.5 1.5 0 0 1 3.001.001zM271 209.5a1.5 1.5 0 1 1-3.001-.001 1.5 1.5 0 0 1 3.001.001zM291 209.5a1.5 1.5 0 1 1-3.001-.001 1.5 1.5 0 0 1 3.001.001zM11 229.5a1.5 1.5 0 1 1-3 0 1.5 1.5 0 0 1 3 0zM31 229.5a1.5 1.5 0 1 1-3 0 1.5 1.5 0 0 1 3 0zM51 229.5a1.5 1.5 0 1 1-3 0 1.5 1.5 0 0 1 3 0zM71 229.5a1.5 1.5 0 1 1-3 0 1.5 1.5 0 0 1 3 0zM91 229.5a1.5 1.5 0 1 1-3 0 1.5 1.5 0 0 1 3 0zM111 229.5a1.5 1.5 0 1 1-3.001-.001 1.5 1.5 0 0 1 3.001.001zM131 229.5a1.5 1.5 0 1 1-3.001-.001 1.5 1.5 0 0 1 3.001.001zM151 229.5a1.5 1.5 0 1 1-3.001-.001 1.5 1.5 0 0 1 3.001.001zM171 229.5a1.5 1.5 0 1 1-3.001-.001 1.5 1.5 0 0 1 3.001.001zM191 229.5a1.5 1.5 0 1 1-3.001-.001 1.5 1.5 0 0 1 3.001.001zM211 229.5a1.5 1.5 0 1 1-3.001-.001 1.5 1.5 0 0 1 3.001.001zM231 229.5a1.5 1.5 0 1 1-3.001-.001 1.5 1.5 0 0 1 3.001.001zM251 229.5a1.5 1.5 0 1 1-3.001-.001 1.5 1.5 0 0 1 3.001.001zM271 229.5a1.5 1.5 0 1 1-3.001-.001 1.5 1.5 0 0 1 3.001.001zM291 229.5a1.5 1.5 0 1 1-3.001-.001 1.5 1.5 0 0 1 3.001.001zM311 9.5a1.5 1.5 0 1 1-3 0 1.5 1.5 0 0 1 3 0zM331 9.5a1.5 1.5 0 1 1-3 0 1.5 1.5 0 0 1 3 0zM351 9.5a1.5 1.5 0 1 1-3 0 1.5 1.5 0 0 1 3 0zM371 9.5a1.5 1.5 0 1 1-3 0 1.5 1.5 0 0 1 3 0zM391 9.5a1.5 1.5 0 1 1-3 0 1.5 1.5 0 0 1 3 0zM411 9.5a1.5 1.5 0 1 1-3 0 1.5 1.5 0 0 1 3 0zM431 9.5a1.5 1.5 0 1 1-3 0 1.5 1.5 0 0 1 3 0zM451 9.5a1.5 1.5 0 1 1-3 0 1.5 1.5 0 0 1 3 0zM471 9.5a1.5 1.5 0 1 1-3 0 1.5 1.5 0 0 1 3 0zM491 9.5a1.5 1.5 0 1 1-3 0 1.5 1.5 0 0 1 3 0zM511 9.5a1.5 1.5 0 1 1-3 0 1.5 1.5 0 0 1 3 0zM531 9.5a1.5 1.5 0 1 1-3 0 1.5 1.5 0 0 1 3 0zM551 9.5a1.5 1.5 0 1 1-3 0 1.5 1.5 0 0 1 3 0zM571 9.5a1.5 1.5 0 1 1-3 0 1.5 1.5 0 0 1 3 0zM591 9.5a1.5 1.5 0 1 1-3 0 1.5 1.5 0 0 1 3 0zM311 29.5a1.5 1.5 0 1 1-3 0 1.5 1.5 0 0 1 3 0zM331 29.5a1.5 1.5 0 1 1-3 0 1.5 1.5 0 0 1 3 0zM351 29.5a1.5 1.5 0 1 1-3 0 1.5 1.5 0 0 1 3 0zM371 29.5a1.5 1.5 0 1 1-3 0 1.5 1.5 0 0 1 3 0zM391 29.5a1.5 1.5 0 1 1-3 0 1.5 1.5 0 0 1 3 0zM411 29.5a1.5 1.5 0 1 1-3 0 1.5 1.5 0 0 1 3 0zM431 29.5a1.5 1.5 0 1 1-3 0 1.5 1.5 0 0 1 3 0zM451 29.5a1.5 1.5 0 1 1-3 0 1.5 1.5 0 0 1 3 0zM471 29.5a1.5 1.5 0 1 1-3 0 1.5 1.5 0 0 1 3 0zM491 29.5a1.5 1.5 0 1 1-3 0 1.5 1.5 0 0 1 3 0zM511 29.5a1.5 1.5 0 1 1-3 0 1.5 1.5 0 0 1 3 0zM531 29.5a1.5 1.5 0 1 1-3 0 1.5 1.5 0 0 1 3 0zM551 29.5a1.5 1.5 0 1 1-3 0 1.5 1.5 0 0 1 3 0zM571 29.5a1.5 1.5 0 1 1-3 0 1.5 1.5 0 0 1 3 0zM591 29.5a1.5 1.5 0 1 1-3 0 1.5 1.5 0 0 1 3 0zM311 49.5a1.5 1.5 0 1 1-3 0 1.5 1.5 0 0 1 3 0zM331 49.5a1.5 1.5 0 1 1-3 0 1.5 1.5 0 0 1 3 0zM351 49.5a1.5 1.5 0 1 1-3 0 1.5 1.5 0 0 1 3 0zM371 49.5a1.5 1.5 0 1 1-3 0 1.5 1.5 0 0 1 3 0zM391 49.5a1.5 1.5 0 1 1-3 0 1.5 1.5 0 0 1 3 0zM411 49.5a1.5 1.5 0 1 1-3 0 1.5 1.5 0 0 1 3 0zM431 49.5a1.5 1.5 0 1 1-3 0 1.5 1.5 0 0 1 3 0zM451 49.5a1.5 1.5 0 1 1-3 0 1.5 1.5 0 0 1 3 0zM471 49.5a1.5 1.5 0 1 1-3 0 1.5 1.5 0 0 1 3 0zM491 49.5a1.5 1.5 0 1 1-3 0 1.5 1.5 0 0 1 3 0zM511 49.5a1.5 1.5 0 1 1-3 0 1.5 1.5 0 0 1 3 0zM531 49.5a1.5 1.5 0 1 1-3 0 1.5 1.5 0 0 1 3 0zM551 49.5a1.5 1.5 0 1 1-3 0 1.5 1.5 0 0 1 3 0zM571 49.5a1.5 1.5 0 1 1-3 0 1.5 1.5 0 0 1 3 0zM591 49.5a1.5 1.5 0 1 1-3 0 1.5 1.5 0 0 1 3 0zM311 69.5a1.5 1.5 0 1 1-3 0 1.5 1.5 0 0 1 3 0zM331 69.5a1.5 1.5 0 1 1-3 0 1.5 1.5 0 0 1 3 0zM351 69.5a1.5 1.5 0 1 1-3 0 1.5 1.5 0 0 1 3 0zM371 69.5a1.5 1.5 0 1 1-3 0 1.5 1.5 0 0 1 3 0zM391 69.5a1.5 1.5 0 1 1-3 0 1.5 1.5 0 0 1 3 0zM411 69.5a1.5 1.5 0 1 1-3 0 1.5 1.5 0 0 1 3 0zM431 69.5a1.5 1.5 0 1 1-3 0 1.5 1.5 0 0 1 3 0zM451 69.5a1.5 1.5 0 1 1-3 0 1.5 1.5 0 0 1 3 0zM471 69.5a1.5 1.5 0 1 1-3 0 1.5 1.5 0 0 1 3 0zM491 69.5a1.5 1.5 0 1 1-3 0 1.5 1.5 0 0 1 3 0zM511 69.5a1.5 1.5 0 1 1-3 0 1.5 1.5 0 0 1 3 0zM531 69.5a1.5 1.5 0 1 1-3 0 1.5 1.5 0 0 1 3 0zM551 69.5a1.5 1.5 0 1 1-3 0 1.5 1.5 0 0 1 3 0zM571 69.5a1.5 1.5 0 1 1-3 0 1.5 1.5 0 0 1 3 0zM591 69.5a1.5 1.5 0 1 1-3 0 1.5 1.5 0 0 1 3 0zM311 89.5a1.5 1.5 0 1 1-3 0 1.5 1.5 0 0 1 3 0zM331 89.5a1.5 1.5 0 1 1-3 0 1.5 1.5 0 0 1 3 0zM351 89.5a1.5 1.5 0 1 1-3 0 1.5 1.5 0 0 1 3 0zM371 89.5a1.5 1.5 0 1 1-3 0 1.5 1.5 0 0 1 3 0zM391 89.5a1.5 1.5 0 1 1-3 0 1.5 1.5 0 0 1 3 0zM411 89.5a1.5 1.5 0 1 1-3 0 1.5 1.5 0 0 1 3 0zM431 89.5a1.5 1.5 0 1 1-3 0 1.5 1.5 0 0 1 3 0zM451 89.5a1.5 1.5 0 1 1-3 0 1.5 1.5 0 0 1 3 0zM471 89.5a1.5 1.5 0 1 1-3 0 1.5 1.5 0 0 1 3 0zM491 89.5a1.5 1.5 0 1 1-3 0 1.5 1.5 0 0 1 3 0zM511 89.5a1.5 1.5 0 1 1-3 0 1.5 1.5 0 0 1 3 0zM531 89.5a1.5 1.5 0 1 1-3 0 1.5 1.5 0 0 1 3 0zM551 89.5a1.5 1.5 0 1 1-3 0 1.5 1.5 0 0 1 3 0zM571 89.5a1.5 1.5 0 1 1-3 0 1.5 1.5 0 0 1 3 0zM591 89.5a1.5 1.5 0 1 1-3 0 1.5 1.5 0 0 1 3 0zM311 109.5a1.5 1.5 0 1 1-3.001-.001 1.5 1.5 0 0 1 3.001.001zM331 109.5a1.5 1.5 0 1 1-3.001-.001 1.5 1.5 0 0 1 3.001.001zM351 109.5a1.5 1.5 0 1 1-3.001-.001 1.5 1.5 0 0 1 3.001.001zM371 109.5a1.5 1.5 0 1 1-3.001-.001 1.5 1.5 0 0 1 3.001.001zM391 109.5a1.5 1.5 0 1 1-3.001-.001 1.5 1.5 0 0 1 3.001.001zM411 109.5a1.5 1.5 0 1 1-3.001-.001 1.5 1.5 0 0 1 3.001.001zM431 109.5a1.5 1.5 0 1 1-3.001-.001 1.5 1.5 0 0 1 3.001.001zM451 109.5a1.5 1.5 0 1 1-3.001-.001 1.5 1.5 0 0 1 3.001.001zM471 109.5a1.5 1.5 0 1 1-3.001-.001 1.5 1.5 0 0 1 3.001.001zM491 109.5a1.5 1.5 0 1 1-3.001-.001 1.5 1.5 0 0 1 3.001.001zM511 109.5a1.5 1.5 0 1 1-3.001-.001 1.5 1.5 0 0 1 3.001.001zM531 109.5a1.5 1.5 0 1 1-3.001-.001 1.5 1.5 0 0 1 3.001.001zM551 109.5a1.5 1.5 0 1 1-3.001-.001 1.5 1.5 0 0 1 3.001.001zM571 109.5a1.5 1.5 0 1 1-3.001-.001 1.5 1.5 0 0 1 3.001.001zM591 109.5a1.5 1.5 0 1 1-3.001-.001 1.5 1.5 0 0 1 3.001.001zM311 129.5a1.5 1.5 0 1 1-3.001-.001 1.5 1.5 0 0 1 3.001.001zM331 129.5a1.5 1.5 0 1 1-3.001-.001 1.5 1.5 0 0 1 3.001.001zM351 129.5a1.5 1.5 0 1 1-3.001-.001 1.5 1.5 0 0 1 3.001.001zM371 129.5a1.5 1.5 0 1 1-3.001-.001 1.5 1.5 0 0 1 3.001.001zM391 129.5a1.5 1.5 0 1 1-3.001-.001 1.5 1.5 0 0 1 3.001.001zM411 129.5a1.5 1.5 0 1 1-3.001-.001 1.5 1.5 0 0 1 3.001.001zM431 129.5a1.5 1.5 0 1 1-3.001-.001 1.5 1.5 0 0 1 3.001.001zM451 129.5a1.5 1.5 0 1 1-3.001-.001 1.5 1.5 0 0 1 3.001.001zM471 129.5a1.5 1.5 0 1 1-3.001-.001 1.5 1.5 0 0 1 3.001.001zM491 129.5a1.5 1.5 0 1 1-3.001-.001 1.5 1.5 0 0 1 3.001.001zM511 129.5a1.5 1.5 0 1 1-3.001-.001 1.5 1.5 0 0 1 3.001.001zM531 129.5a1.5 1.5 0 1 1-3.001-.001 1.5 1.5 0 0 1 3.001.001zM551 129.5a1.5 1.5 0 1 1-3.001-.001 1.5 1.5 0 0 1 3.001.001zM571 129.5a1.5 1.5 0 1 1-3.001-.001 1.5 1.5 0 0 1 3.001.001zM591 129.5a1.5 1.5 0 1 1-3.001-.001 1.5 1.5 0 0 1 3.001.001zM311 149.5a1.5 1.5 0 1 1-3.001-.001 1.5 1.5 0 0 1 3.001.001zM331 149.5a1.5 1.5 0 1 1-3.001-.001 1.5 1.5 0 0 1 3.001.001zM351 149.5a1.5 1.5 0 1 1-3.001-.001 1.5 1.5 0 0 1 3.001.001zM371 149.5a1.5 1.5 0 1 1-3.001-.001 1.5 1.5 0 0 1 3.001.001zM391 149.5a1.5 1.5 0 1 1-3.001-.001 1.5 1.5 0 0 1 3.001.001zM411 149.5a1.5 1.5 0 1 1-3.001-.001 1.5 1.5 0 0 1 3.001.001zM431 149.5a1.5 1.5 0 1 1-3.001-.001 1.5 1.5 0 0 1 3.001.001zM451 149.5a1.5 1.5 0 1 1-3.001-.001 1.5 1.5 0 0 1 3.001.001zM471 149.5a1.5 1.5 0 1 1-3.001-.001 1.5 1.5 0 0 1 3.001.001zM491 149.5a1.5 1.5 0 1 1-3.001-.001 1.5 1.5 0 0 1 3.001.001zM511 149.5a1.5 1.5 0 1 1-3.001-.001 1.5 1.5 0 0 1 3.001.001zM531 149.5a1.5 1.5 0 1 1-3.001-.001 1.5 1.5 0 0 1 3.001.001zM551 149.5a1.5 1.5 0 1 1-3.001-.001 1.5 1.5 0 0 1 3.001.001zM571 149.5a1.5 1.5 0 1 1-3.001-.001 1.5 1.5 0 0 1 3.001.001zM591 149.5a1.5 1.5 0 1 1-3.001-.001 1.5 1.5 0 0 1 3.001.001zM311 169.5a1.5 1.5 0 1 1-3.001-.001 1.5 1.5 0 0 1 3.001.001zM331 169.5a1.5 1.5 0 1 1-3.001-.001 1.5 1.5 0 0 1 3.001.001zM351 169.5a1.5 1.5 0 1 1-3.001-.001 1.5 1.5 0 0 1 3.001.001zM371 169.5a1.5 1.5 0 1 1-3.001-.001 1.5 1.5 0 0 1 3.001.001zM391 169.5a1.5 1.5 0 1 1-3.001-.001 1.5 1.5 0 0 1 3.001.001zM411 169.5a1.5 1.5 0 1 1-3.001-.001 1.5 1.5 0 0 1 3.001.001zM431 169.5a1.5 1.5 0 1 1-3.001-.001 1.5 1.5 0 0 1 3.001.001zM451 169.5a1.5 1.5 0 1 1-3.001-.001 1.5 1.5 0 0 1 3.001.001zM471 169.5a1.5 1.5 0 1 1-3.001-.001 1.5 1.5 0 0 1 3.001.001zM491 169.5a1.5 1.5 0 1 1-3.001-.001 1.5 1.5 0 0 1 3.001.001zM511 169.5a1.5 1.5 0 1 1-3.001-.001 1.5 1.5 0 0 1 3.001.001zM531 169.5a1.5 1.5 0 1 1-3.001-.001 1.5 1.5 0 0 1 3.001.001zM551 169.5a1.5 1.5 0 1 1-3.001-.001 1.5 1.5 0 0 1 3.001.001zM571 169.5a1.5 1.5 0 1 1-3.001-.001 1.5 1.5 0 0 1 3.001.001zM591 169.5a1.5 1.5 0 1 1-3.001-.001 1.5 1.5 0 0 1 3.001.001zM311 189.5a1.5 1.5 0 1 1-3.001-.001 1.5 1.5 0 0 1 3.001.001zM331 189.5a1.5 1.5 0 1 1-3.001-.001 1.5 1.5 0 0 1 3.001.001zM351 189.5a1.5 1.5 0 1 1-3.001-.001 1.5 1.5 0 0 1 3.001.001zM371 189.5a1.5 1.5 0 1 1-3.001-.001 1.5 1.5 0 0 1 3.001.001zM391 189.5a1.5 1.5 0 1 1-3.001-.001 1.5 1.5 0 0 1 3.001.001zM411 189.5a1.5 1.5 0 1 1-3.001-.001 1.5 1.5 0 0 1 3.001.001zM431 189.5a1.5 1.5 0 1 1-3.001-.001 1.5 1.5 0 0 1 3.001.001zM451 189.5a1.5 1.5 0 1 1-3.001-.001 1.5 1.5 0 0 1 3.001.001zM471 189.5a1.5 1.5 0 1 1-3.001-.001 1.5 1.5 0 0 1 3.001.001zM491 189.5a1.5 1.5 0 1 1-3.001-.001 1.5 1.5 0 0 1 3.001.001zM511 189.5a1.5 1.5 0 1 1-3.001-.001 1.5 1.5 0 0 1 3.001.001zM531 189.5a1.5 1.5 0 1 1-3.001-.001 1.5 1.5 0 0 1 3.001.001zM551 189.5a1.5 1.5 0 1 1-3.001-.001 1.5 1.5 0 0 1 3.001.001zM571 189.5a1.5 1.5 0 1 1-3.001-.001 1.5 1.5 0 0 1 3.001.001zM591 189.5a1.5 1.5 0 1 1-3.001-.001 1.5 1.5 0 0 1 3.001.001zM311 209.5a1.5 1.5 0 1 1-3.001-.001 1.5 1.5 0 0 1 3.001.001zM331 209.5a1.5 1.5 0 1 1-3.001-.001 1.5 1.5 0 0 1 3.001.001zM351 209.5a1.5 1.5 0 1 1-3.001-.001 1.5 1.5 0 0 1 3.001.001zM371 209.5a1.5 1.5 0 1 1-3.001-.001 1.5 1.5 0 0 1 3.001.001zM391 209.5a1.5 1.5 0 1 1-3.001-.001 1.5 1.5 0 0 1 3.001.001zM411 209.5a1.5 1.5 0 1 1-3.001-.001 1.5 1.5 0 0 1 3.001.001zM431 209.5a1.5 1.5 0 1 1-3.001-.001 1.5 1.5 0 0 1 3.001.001zM451 209.5a1.5 1.5 0 1 1-3.001-.001 1.5 1.5 0 0 1 3.001.001zM471 209.5a1.5 1.5 0 1 1-3.001-.001 1.5 1.5 0 0 1 3.001.001zM491 209.5a1.5 1.5 0 1 1-3.001-.001 1.5 1.5 0 0 1 3.001.001zM511 209.5a1.5 1.5 0 1 1-3.001-.001 1.5 1.5 0 0 1 3.001.001zM531 209.5a1.5 1.5 0 1 1-3.001-.001 1.5 1.5 0 0 1 3.001.001zM551 209.5a1.5 1.5 0 1 1-3.001-.001 1.5 1.5 0 0 1 3.001.001zM571 209.5a1.5 1.5 0 1 1-3.001-.001 1.5 1.5 0 0 1 3.001.001zM591 209.5a1.5 1.5 0 1 1-3.001-.001 1.5 1.5 0 0 1 3.001.001zM311 229.5a1.5 1.5 0 1 1-3.001-.001 1.5 1.5 0 0 1 3.001.001zM331 229.5a1.5 1.5 0 1 1-3.001-.001 1.5 1.5 0 0 1 3.001.001zM351 229.5a1.5 1.5 0 1 1-3.001-.001 1.5 1.5 0 0 1 3.001.001zM371 229.5a1.5 1.5 0 1 1-3.001-.001 1.5 1.5 0 0 1 3.001.001zM391 229.5a1.5 1.5 0 1 1-3.001-.001 1.5 1.5 0 0 1 3.001.001zM411 229.5a1.5 1.5 0 1 1-3.001-.001 1.5 1.5 0 0 1 3.001.001zM431 229.5a1.5 1.5 0 1 1-3.001-.001 1.5 1.5 0 0 1 3.001.001zM451 229.5a1.5 1.5 0 1 1-3.001-.001 1.5 1.5 0 0 1 3.001.001zM471 229.5a1.5 1.5 0 1 1-3.001-.001 1.5 1.5 0 0 1 3.001.001zM491 229.5a1.5 1.5 0 1 1-3.001-.001 1.5 1.5 0 0 1 3.001.001zM511 229.5a1.5 1.5 0 1 1-3.001-.001 1.5 1.5 0 0 1 3.001.001zM531 229.5a1.5 1.5 0 1 1-3.001-.001 1.5 1.5 0 0 1 3.001.001zM551 229.5a1.5 1.5 0 1 1-3.001-.001 1.5 1.5 0 0 1 3.001.001zM571 229.5a1.5 1.5 0 1 1-3.001-.001 1.5 1.5 0 0 1 3.001.001zM591 229.5a1.5 1.5 0 1 1-3.001-.001 1.5 1.5 0 0 1 3.001.001zM611 9.5a1.5 1.5 0 1 1-3 0 1.5 1.5 0 0 1 3 0zM631 9.5a1.5 1.5 0 1 1-3 0 1.5 1.5 0 0 1 3 0zM651 9.5a1.5 1.5 0 1 1-3 0 1.5 1.5 0 0 1 3 0zM671 9.5a1.5 1.5 0 1 1-3 0 1.5 1.5 0 0 1 3 0zM691 9.5a1.5 1.5 0 1 1-3 0 1.5 1.5 0 0 1 3 0zM711 9.5a1.5 1.5 0 1 1-3 0 1.5 1.5 0 0 1 3 0zM731 9.5a1.5 1.5 0 1 1-3 0 1.5 1.5 0 0 1 3 0zM751 9.5a1.5 1.5 0 1 1-3 0 1.5 1.5 0 0 1 3 0zM771 9.5a1.5 1.5 0 1 1-3 0 1.5 1.5 0 0 1 3 0zM791 9.5a1.5 1.5 0 1 1-3 0 1.5 1.5 0 0 1 3 0zM811 9.5a1.5 1.5 0 1 1-3 0 1.5 1.5 0 0 1 3 0zM831 9.5a1.5 1.5 0 1 1-3 0 1.5 1.5 0 0 1 3 0zM851 9.5a1.5 1.5 0 1 1-3 0 1.5 1.5 0 0 1 3 0zM871 9.5a1.5 1.5 0 1 1-3 0 1.5 1.5 0 0 1 3 0zM891 9.5a1.5 1.5 0 1 1-3 0 1.5 1.5 0 0 1 3 0zM611 29.5a1.5 1.5 0 1 1-3 0 1.5 1.5 0 0 1 3 0zM631 29.5a1.5 1.5 0 1 1-3 0 1.5 1.5 0 0 1 3 0zM651 29.5a1.5 1.5 0 1 1-3 0 1.5 1.5 0 0 1 3 0zM671 29.5a1.5 1.5 0 1 1-3 0 1.5 1.5 0 0 1 3 0zM691 29.5a1.5 1.5 0 1 1-3 0 1.5 1.5 0 0 1 3 0zM711 29.5a1.5 1.5 0 1 1-3 0 1.5 1.5 0 0 1 3 0zM731 29.5a1.5 1.5 0 1 1-3 0 1.5 1.5 0 0 1 3 0zM751 29.5a1.5 1.5 0 1 1-3 0 1.5 1.5 0 0 1 3 0zM771 29.5a1.5 1.5 0 1 1-3 0 1.5 1.5 0 0 1 3 0zM791 29.5a1.5 1.5 0 1 1-3 0 1.5 1.5 0 0 1 3 0zM811 29.5a1.5 1.5 0 1 1-3 0 1.5 1.5 0 0 1 3 0zM831 29.5a1.5 1.5 0 1 1-3 0 1.5 1.5 0 0 1 3 0zM851 29.5a1.5 1.5 0 1 1-3 0 1.5 1.5 0 0 1 3 0zM871 29.5a1.5 1.5 0 1 1-3 0 1.5 1.5 0 0 1 3 0zM891 29.5a1.5 1.5 0 1 1-3 0 1.5 1.5 0 0 1 3 0zM611 49.5a1.5 1.5 0 1 1-3 0 1.5 1.5 0 0 1 3 0zM631 49.5a1.5 1.5 0 1 1-3 0 1.5 1.5 0 0 1 3 0zM651 49.5a1.5 1.5 0 1 1-3 0 1.5 1.5 0 0 1 3 0zM671 49.5a1.5 1.5 0 1 1-3 0 1.5 1.5 0 0 1 3 0zM691 49.5a1.5 1.5 0 1 1-3 0 1.5 1.5 0 0 1 3 0zM711 49.5a1.5 1.5 0 1 1-3 0 1.5 1.5 0 0 1 3 0zM731 49.5a1.5 1.5 0 1 1-3 0 1.5 1.5 0 0 1 3 0zM751 49.5a1.5 1.5 0 1 1-3 0 1.5 1.5 0 0 1 3 0zM771 49.5a1.5 1.5 0 1 1-3 0 1.5 1.5 0 0 1 3 0zM791 49.5a1.5 1.5 0 1 1-3 0 1.5 1.5 0 0 1 3 0zM811 49.5a1.5 1.5 0 1 1-3 0 1.5 1.5 0 0 1 3 0zM831 49.5a1.5 1.5 0 1 1-3 0 1.5 1.5 0 0 1 3 0zM851 49.5a1.5 1.5 0 1 1-3 0 1.5 1.5 0 0 1 3 0zM871 49.5a1.5 1.5 0 1 1-3 0 1.5 1.5 0 0 1 3 0zM891 49.5a1.5 1.5 0 1 1-3 0 1.5 1.5 0 0 1 3 0zM611 69.5a1.5 1.5 0 1 1-3 0 1.5 1.5 0 0 1 3 0zM631 69.5a1.5 1.5 0 1 1-3 0 1.5 1.5 0 0 1 3 0zM651 69.5a1.5 1.5 0 1 1-3 0 1.5 1.5 0 0 1 3 0zM671 69.5a1.5 1.5 0 1 1-3 0 1.5 1.5 0 0 1 3 0zM691 69.5a1.5 1.5 0 1 1-3 0 1.5 1.5 0 0 1 3 0zM711 69.5a1.5 1.5 0 1 1-3 0 1.5 1.5 0 0 1 3 0zM731 69.5a1.5 1.5 0 1 1-3 0 1.5 1.5 0 0 1 3 0zM751 69.5a1.5 1.5 0 1 1-3 0 1.5 1.5 0 0 1 3 0zM771 69.5a1.5 1.5 0 1 1-3 0 1.5 1.5 0 0 1 3 0zM791 69.5a1.5 1.5 0 1 1-3 0 1.5 1.5 0 0 1 3 0zM811 69.5a1.5 1.5 0 1 1-3 0 1.5 1.5 0 0 1 3 0zM831 69.5a1.5 1.5 0 1 1-3 0 1.5 1.5 0 0 1 3 0zM851 69.5a1.5 1.5 0 1 1-3 0 1.5 1.5 0 0 1 3 0zM871 69.5a1.5 1.5 0 1 1-3 0 1.5 1.5 0 0 1 3 0zM891 69.5a1.5 1.5 0 1 1-3 0 1.5 1.5 0 0 1 3 0zM611 89.5a1.5 1.5 0 1 1-3 0 1.5 1.5 0 0 1 3 0zM631 89.5a1.5 1.5 0 1 1-3 0 1.5 1.5 0 0 1 3 0zM651 89.5a1.5 1.5 0 1 1-3 0 1.5 1.5 0 0 1 3 0zM671 89.5a1.5 1.5 0 1 1-3 0 1.5 1.5 0 0 1 3 0zM691 89.5a1.5 1.5 0 1 1-3 0 1.5 1.5 0 0 1 3 0zM711 89.5a1.5 1.5 0 1 1-3 0 1.5 1.5 0 0 1 3 0zM731 89.5a1.5 1.5 0 1 1-3 0 1.5 1.5 0 0 1 3 0zM751 89.5a1.5 1.5 0 1 1-3 0 1.5 1.5 0 0 1 3 0zM771 89.5a1.5 1.5 0 1 1-3 0 1.5 1.5 0 0 1 3 0zM791 89.5a1.5 1.5 0 1 1-3 0 1.5 1.5 0 0 1 3 0zM811 89.5a1.5 1.5 0 1 1-3 0 1.5 1.5 0 0 1 3 0zM831 89.5a1.5 1.5 0 1 1-3 0 1.5 1.5 0 0 1 3 0zM851 89.5a1.5 1.5 0 1 1-3 0 1.5 1.5 0 0 1 3 0zM871 89.5a1.5 1.5 0 1 1-3 0 1.5 1.5 0 0 1 3 0zM891 89.5a1.5 1.5 0 1 1-3 0 1.5 1.5 0 0 1 3 0zM611 109.5a1.5 1.5 0 1 1-3.001-.001 1.5 1.5 0 0 1 3.001.001zM631 109.5a1.5 1.5 0 1 1-3.001-.001 1.5 1.5 0 0 1 3.001.001zM651 109.5a1.5 1.5 0 1 1-3.001-.001 1.5 1.5 0 0 1 3.001.001zM671 109.5a1.5 1.5 0 1 1-3.001-.001 1.5 1.5 0 0 1 3.001.001zM691 109.5a1.5 1.5 0 1 1-3.001-.001 1.5 1.5 0 0 1 3.001.001zM711 109.5a1.5 1.5 0 1 1-3.001-.001 1.5 1.5 0 0 1 3.001.001zM731 109.5a1.5 1.5 0 1 1-3.001-.001 1.5 1.5 0 0 1 3.001.001zM751 109.5a1.5 1.5 0 1 1-3.001-.001 1.5 1.5 0 0 1 3.001.001zM771 109.5a1.5 1.5 0 1 1-3.001-.001 1.5 1.5 0 0 1 3.001.001zM791 109.5a1.5 1.5 0 1 1-3.001-.001 1.5 1.5 0 0 1 3.001.001zM811 109.5a1.5 1.5 0 1 1-3.001-.001 1.5 1.5 0 0 1 3.001.001zM831 109.5a1.5 1.5 0 1 1-3.001-.001 1.5 1.5 0 0 1 3.001.001zM851 109.5a1.5 1.5 0 1 1-3.001-.001 1.5 1.5 0 0 1 3.001.001zM871 109.5a1.5 1.5 0 1 1-3.001-.001 1.5 1.5 0 0 1 3.001.001zM891 109.5a1.5 1.5 0 1 1-3.001-.001 1.5 1.5 0 0 1 3.001.001zM611 129.5a1.5 1.5 0 1 1-3.001-.001 1.5 1.5 0 0 1 3.001.001zM631 129.5a1.5 1.5 0 1 1-3.001-.001 1.5 1.5 0 0 1 3.001.001zM651 129.5a1.5 1.5 0 1 1-3.001-.001 1.5 1.5 0 0 1 3.001.001zM671 129.5a1.5 1.5 0 1 1-3.001-.001 1.5 1.5 0 0 1 3.001.001zM691 129.5a1.5 1.5 0 1 1-3.001-.001 1.5 1.5 0 0 1 3.001.001zM711 129.5a1.5 1.5 0 1 1-3.001-.001 1.5 1.5 0 0 1 3.001.001zM731 129.5a1.5 1.5 0 1 1-3.001-.001 1.5 1.5 0 0 1 3.001.001zM751 129.5a1.5 1.5 0 1 1-3.001-.001 1.5 1.5 0 0 1 3.001.001zM771 129.5a1.5 1.5 0 1 1-3.001-.001 1.5 1.5 0 0 1 3.001.001zM791 129.5a1.5 1.5 0 1 1-3.001-.001 1.5 1.5 0 0 1 3.001.001zM811 129.5a1.5 1.5 0 1 1-3.001-.001 1.5 1.5 0 0 1 3.001.001zM831 129.5a1.5 1.5 0 1 1-3.001-.001 1.5 1.5 0 0 1 3.001.001zM851 129.5a1.5 1.5 0 1 1-3.001-.001 1.5 1.5 0 0 1 3.001.001zM871 129.5a1.5 1.5 0 1 1-3.001-.001 1.5 1.5 0 0 1 3.001.001zM891 129.5a1.5 1.5 0 1 1-3.001-.001 1.5 1.5 0 0 1 3.001.001zM611 149.5a1.5 1.5 0 1 1-3.001-.001 1.5 1.5 0 0 1 3.001.001zM631 149.5a1.5 1.5 0 1 1-3.001-.001 1.5 1.5 0 0 1 3.001.001zM651 149.5a1.5 1.5 0 1 1-3.001-.001 1.5 1.5 0 0 1 3.001.001zM671 149.5a1.5 1.5 0 1 1-3.001-.001 1.5 1.5 0 0 1 3.001.001zM691 149.5a1.5 1.5 0 1 1-3.001-.001 1.5 1.5 0 0 1 3.001.001zM711 149.5a1.5 1.5 0 1 1-3.001-.001 1.5 1.5 0 0 1 3.001.001zM731 149.5a1.5 1.5 0 1 1-3.001-.001 1.5 1.5 0 0 1 3.001.001zM751 149.5a1.5 1.5 0 1 1-3.001-.001 1.5 1.5 0 0 1 3.001.001zM771 149.5a1.5 1.5 0 1 1-3.001-.001 1.5 1.5 0 0 1 3.001.001zM791 149.5a1.5 1.5 0 1 1-3.001-.001 1.5 1.5 0 0 1 3.001.001zM811 149.5a1.5 1.5 0 1 1-3.001-.001 1.5 1.5 0 0 1 3.001.001zM831 149.5a1.5 1.5 0 1 1-3.001-.001 1.5 1.5 0 0 1 3.001.001zM851 149.5a1.5 1.5 0 1 1-3.001-.001 1.5 1.5 0 0 1 3.001.001zM871 149.5a1.5 1.5 0 1 1-3.001-.001 1.5 1.5 0 0 1 3.001.001zM891 149.5a1.5 1.5 0 1 1-3.001-.001 1.5 1.5 0 0 1 3.001.001zM611 169.5a1.5 1.5 0 1 1-3.001-.001 1.5 1.5 0 0 1 3.001.001zM631 169.5a1.5 1.5 0 1 1-3.001-.001 1.5 1.5 0 0 1 3.001.001zM651 169.5a1.5 1.5 0 1 1-3.001-.001 1.5 1.5 0 0 1 3.001.001zM671 169.5a1.5 1.5 0 1 1-3.001-.001 1.5 1.5 0 0 1 3.001.001zM691 169.5a1.5 1.5 0 1 1-3.001-.001 1.5 1.5 0 0 1 3.001.001zM711 169.5a1.5 1.5 0 1 1-3.001-.001 1.5 1.5 0 0 1 3.001.001zM731 169.5a1.5 1.5 0 1 1-3.001-.001 1.5 1.5 0 0 1 3.001.001zM751 169.5a1.5 1.5 0 1 1-3.001-.001 1.5 1.5 0 0 1 3.001.001zM771 169.5a1.5 1.5 0 1 1-3.001-.001 1.5 1.5 0 0 1 3.001.001zM791 169.5a1.5 1.5 0 1 1-3.001-.001 1.5 1.5 0 0 1 3.001.001zM811 169.5a1.5 1.5 0 1 1-3.001-.001 1.5 1.5 0 0 1 3.001.001zM831 169.5a1.5 1.5 0 1 1-3.001-.001 1.5 1.5 0 0 1 3.001.001zM851 169.5a1.5 1.5 0 1 1-3.001-.001 1.5 1.5 0 0 1 3.001.001zM871 169.5a1.5 1.5 0 1 1-3.001-.001 1.5 1.5 0 0 1 3.001.001zM891 169.5a1.5 1.5 0 1 1-3.001-.001 1.5 1.5 0 0 1 3.001.001zM611 189.5a1.5 1.5 0 1 1-3.001-.001 1.5 1.5 0 0 1 3.001.001zM631 189.5a1.5 1.5 0 1 1-3.001-.001 1.5 1.5 0 0 1 3.001.001zM651 189.5a1.5 1.5 0 1 1-3.001-.001 1.5 1.5 0 0 1 3.001.001zM671 189.5a1.5 1.5 0 1 1-3.001-.001 1.5 1.5 0 0 1 3.001.001zM691 189.5a1.5 1.5 0 1 1-3.001-.001 1.5 1.5 0 0 1 3.001.001zM711 189.5a1.5 1.5 0 1 1-3.001-.001 1.5 1.5 0 0 1 3.001.001zM731 189.5a1.5 1.5 0 1 1-3.001-.001 1.5 1.5 0 0 1 3.001.001zM751 189.5a1.5 1.5 0 1 1-3.001-.001 1.5 1.5 0 0 1 3.001.001zM771 189.5a1.5 1.5 0 1 1-3.001-.001 1.5 1.5 0 0 1 3.001.001zM791 189.5a1.5 1.5 0 1 1-3.001-.001 1.5 1.5 0 0 1 3.001.001zM811 189.5a1.5 1.5 0 1 1-3.001-.001 1.5 1.5 0 0 1 3.001.001zM831 189.5a1.5 1.5 0 1 1-3.001-.001 1.5 1.5 0 0 1 3.001.001zM851 189.5a1.5 1.5 0 1 1-3.001-.001 1.5 1.5 0 0 1 3.001.001zM871 189.5a1.5 1.5 0 1 1-3.001-.001 1.5 1.5 0 0 1 3.001.001zM891 189.5a1.5 1.5 0 1 1-3.001-.001 1.5 1.5 0 0 1 3.001.001zM611 209.5a1.5 1.5 0 1 1-3.001-.001 1.5 1.5 0 0 1 3.001.001zM631 209.5a1.5 1.5 0 1 1-3.001-.001 1.5 1.5 0 0 1 3.001.001zM651 209.5a1.5 1.5 0 1 1-3.001-.001 1.5 1.5 0 0 1 3.001.001zM671 209.5a1.5 1.5 0 1 1-3.001-.001 1.5 1.5 0 0 1 3.001.001zM691 209.5a1.5 1.5 0 1 1-3.001-.001 1.5 1.5 0 0 1 3.001.001zM711 209.5a1.5 1.5 0 1 1-3.001-.001 1.5 1.5 0 0 1 3.001.001zM731 209.5a1.5 1.5 0 1 1-3.001-.001 1.5 1.5 0 0 1 3.001.001zM751 209.5a1.5 1.5 0 1 1-3.001-.001 1.5 1.5 0 0 1 3.001.001zM771 209.5a1.5 1.5 0 1 1-3.001-.001 1.5 1.5 0 0 1 3.001.001zM791 209.5a1.5 1.5 0 1 1-3.001-.001 1.5 1.5 0 0 1 3.001.001zM811 209.5a1.5 1.5 0 1 1-3.001-.001 1.5 1.5 0 0 1 3.001.001zM831 209.5a1.5 1.5 0 1 1-3.001-.001 1.5 1.5 0 0 1 3.001.001zM851 209.5a1.5 1.5 0 1 1-3.001-.001 1.5 1.5 0 0 1 3.001.001zM871 209.5a1.5 1.5 0 1 1-3.001-.001 1.5 1.5 0 0 1 3.001.001zM891 209.5a1.5 1.5 0 1 1-3.001-.001 1.5 1.5 0 0 1 3.001.001zM611 229.5a1.5 1.5 0 1 1-3.001-.001 1.5 1.5 0 0 1 3.001.001zM631 229.5a1.5 1.5 0 1 1-3.001-.001 1.5 1.5 0 0 1 3.001.001zM651 229.5a1.5 1.5 0 1 1-3.001-.001 1.5 1.5 0 0 1 3.001.001zM671 229.5a1.5 1.5 0 1 1-3.001-.001 1.5 1.5 0 0 1 3.001.001zM691 229.5a1.5 1.5 0 1 1-3.001-.001 1.5 1.5 0 0 1 3.001.001zM711 229.5a1.5 1.5 0 1 1-3.001-.001 1.5 1.5 0 0 1 3.001.001zM731 229.5a1.5 1.5 0 1 1-3.001-.001 1.5 1.5 0 0 1 3.001.001zM751 229.5a1.5 1.5 0 1 1-3.001-.001 1.5 1.5 0 0 1 3.001.001zM771 229.5a1.5 1.5 0 1 1-3.001-.001 1.5 1.5 0 0 1 3.001.001zM791 229.5a1.5 1.5 0 1 1-3.001-.001 1.5 1.5 0 0 1 3.001.001zM811 229.5a1.5 1.5 0 1 1-3.001-.001 1.5 1.5 0 0 1 3.001.001zM831 229.5a1.5 1.5 0 1 1-3.001-.001 1.5 1.5 0 0 1 3.001.001zM851 229.5a1.5 1.5 0 1 1-3.001-.001 1.5 1.5 0 0 1 3.001.001zM871 229.5a1.5 1.5 0 1 1-3.001-.001 1.5 1.5 0 0 1 3.001.001zM891 229.5a1.5 1.5 0 1 1-3.001-.001 1.5 1.5 0 0 1 3.001.001zM911 9.5a1.5 1.5 0 1 1-3 0 1.5 1.5 0 0 1 3 0zM931 9.5a1.5 1.5 0 1 1-3 0 1.5 1.5 0 0 1 3 0zM951 9.5a1.5 1.5 0 1 1-3 0 1.5 1.5 0 0 1 3 0zM971 9.5a1.5 1.5 0 1 1-3 0 1.5 1.5 0 0 1 3 0zM991 9.5a1.5 1.5 0 1 1-3 0 1.5 1.5 0 0 1 3 0zM1011 9.5a1.499 1.499 0 1 1-3 0 1.499 1.499 0 1 1 3 0zM1031 9.5a1.499 1.499 0 1 1-3 0 1.499 1.499 0 1 1 3 0zM1051 9.5a1.499 1.499 0 1 1-3 0 1.499 1.499 0 1 1 3 0zM1071 9.5a1.499 1.499 0 1 1-3 0 1.499 1.499 0 1 1 3 0zM1091 9.5a1.499 1.499 0 1 1-3 0 1.499 1.499 0 1 1 3 0zM911 29.5a1.5 1.5 0 1 1-3 0 1.5 1.5 0 0 1 3 0zM931 29.5a1.5 1.5 0 1 1-3 0 1.5 1.5 0 0 1 3 0zM951 29.5a1.5 1.5 0 1 1-3 0 1.5 1.5 0 0 1 3 0zM971 29.5a1.5 1.5 0 1 1-3 0 1.5 1.5 0 0 1 3 0zM991 29.5a1.5 1.5 0 1 1-3 0 1.5 1.5 0 0 1 3 0zM1011 29.5a1.499 1.499 0 1 1-3 0 1.499 1.499 0 1 1 3 0zM1031 29.5a1.499 1.499 0 1 1-3 0 1.499 1.499 0 1 1 3 0zM1051 29.5a1.499 1.499 0 1 1-3 0 1.499 1.499 0 1 1 3 0zM1071 29.5a1.499 1.499 0 1 1-3 0 1.499 1.499 0 1 1 3 0zM1091 29.5a1.499 1.499 0 1 1-3 0 1.499 1.499 0 1 1 3 0zM911 49.5a1.5 1.5 0 1 1-3 0 1.5 1.5 0 0 1 3 0zM931 49.5a1.5 1.5 0 1 1-3 0 1.5 1.5 0 0 1 3 0zM951 49.5a1.5 1.5 0 1 1-3 0 1.5 1.5 0 0 1 3 0zM971 49.5a1.5 1.5 0 1 1-3 0 1.5 1.5 0 0 1 3 0zM991 49.5a1.5 1.5 0 1 1-3 0 1.5 1.5 0 0 1 3 0zM1011 49.5a1.499 1.499 0 1 1-3 0 1.499 1.499 0 1 1 3 0zM1031 49.5a1.499 1.499 0 1 1-3 0 1.499 1.499 0 1 1 3 0zM1051 49.5a1.499 1.499 0 1 1-3 0 1.499 1.499 0 1 1 3 0zM1071 49.5a1.499 1.499 0 1 1-3 0 1.499 1.499 0 1 1 3 0zM1091 49.5a1.499 1.499 0 1 1-3 0 1.499 1.499 0 1 1 3 0zM911 69.5a1.5 1.5 0 1 1-3 0 1.5 1.5 0 0 1 3 0zM931 69.5a1.5 1.5 0 1 1-3 0 1.5 1.5 0 0 1 3 0zM951 69.5a1.5 1.5 0 1 1-3 0 1.5 1.5 0 0 1 3 0zM971 69.5a1.5 1.5 0 1 1-3 0 1.5 1.5 0 0 1 3 0zM991 69.5a1.5 1.5 0 1 1-3 0 1.5 1.5 0 0 1 3 0zM1011 69.5a1.499 1.499 0 1 1-3 0 1.499 1.499 0 1 1 3 0zM1031 69.5a1.499 1.499 0 1 1-3 0 1.499 1.499 0 1 1 3 0zM1051 69.5a1.499 1.499 0 1 1-3 0 1.499 1.499 0 1 1 3 0zM1071 69.5a1.499 1.499 0 1 1-3 0 1.499 1.499 0 1 1 3 0zM1091 69.5a1.499 1.499 0 1 1-3 0 1.499 1.499 0 1 1 3 0zM911 89.5a1.5 1.5 0 1 1-3 0 1.5 1.5 0 0 1 3 0zM931 89.5a1.5 1.5 0 1 1-3 0 1.5 1.5 0 0 1 3 0zM951 89.5a1.5 1.5 0 1 1-3 0 1.5 1.5 0 0 1 3 0zM971 89.5a1.5 1.5 0 1 1-3 0 1.5 1.5 0 0 1 3 0zM991 89.5a1.5 1.5 0 1 1-3 0 1.5 1.5 0 0 1 3 0zM1011 89.5a1.499 1.499 0 1 1-3 0 1.499 1.499 0 1 1 3 0zM1031 89.5a1.499 1.499 0 1 1-3 0 1.499 1.499 0 1 1 3 0zM1051 89.5a1.499 1.499 0 1 1-3 0 1.499 1.499 0 1 1 3 0zM1071 89.5a1.499 1.499 0 1 1-3 0 1.499 1.499 0 1 1 3 0zM1091 89.5a1.499 1.499 0 1 1-3 0 1.499 1.499 0 1 1 3 0zM911 109.5a1.5 1.5 0 1 1-3.001-.001 1.5 1.5 0 0 1 3.001.001zM931 109.5a1.5 1.5 0 1 1-3.001-.001 1.5 1.5 0 0 1 3.001.001zM951 109.5a1.5 1.5 0 1 1-3.001-.001 1.5 1.5 0 0 1 3.001.001zM971 109.5a1.5 1.5 0 1 1-3.001-.001 1.5 1.5 0 0 1 3.001.001zM991 109.5a1.5 1.5 0 1 1-3.001-.001 1.5 1.5 0 0 1 3.001.001zM1011 109.5a1.5 1.5 0 1 1-2.999.001 1.5 1.5 0 0 1 2.999-.001zM1031 109.5a1.5 1.5 0 1 1-2.999.001 1.5 1.5 0 0 1 2.999-.001zM1051 109.5a1.5 1.5 0 1 1-2.999.001 1.5 1.5 0 0 1 2.999-.001zM1071 109.5a1.5 1.5 0 1 1-2.999.001 1.5 1.5 0 0 1 2.999-.001zM1091 109.5a1.5 1.5 0 1 1-2.999.001 1.5 1.5 0 0 1 2.999-.001zM911 129.5a1.5 1.5 0 1 1-3.001-.001 1.5 1.5 0 0 1 3.001.001zM931 129.5a1.5 1.5 0 1 1-3.001-.001 1.5 1.5 0 0 1 3.001.001zM951 129.5a1.5 1.5 0 1 1-3.001-.001 1.5 1.5 0 0 1 3.001.001zM971 129.5a1.5 1.5 0 1 1-3.001-.001 1.5 1.5 0 0 1 3.001.001zM991 129.5a1.5 1.5 0 1 1-3.001-.001 1.5 1.5 0 0 1 3.001.001zM1011 129.5a1.5 1.5 0 1 1-2.999.001 1.5 1.5 0 0 1 2.999-.001zM1031 129.5a1.5 1.5 0 1 1-2.999.001 1.5 1.5 0 0 1 2.999-.001zM1051 129.5a1.5 1.5 0 1 1-2.999.001 1.5 1.5 0 0 1 2.999-.001zM1071 129.5a1.5 1.5 0 1 1-2.999.001 1.5 1.5 0 0 1 2.999-.001zM1091 129.5a1.5 1.5 0 1 1-2.999.001 1.5 1.5 0 0 1 2.999-.001zM911 149.5a1.5 1.5 0 1 1-3.001-.001 1.5 1.5 0 0 1 3.001.001zM931 149.5a1.5 1.5 0 1 1-3.001-.001 1.5 1.5 0 0 1 3.001.001zM951 149.5a1.5 1.5 0 1 1-3.001-.001 1.5 1.5 0 0 1 3.001.001zM971 149.5a1.5 1.5 0 1 1-3.001-.001 1.5 1.5 0 0 1 3.001.001zM991 149.5a1.5 1.5 0 1 1-3.001-.001 1.5 1.5 0 0 1 3.001.001zM1011 149.5a1.5 1.5 0 1 1-2.999.001 1.5 1.5 0 0 1 2.999-.001zM1031 149.5a1.5 1.5 0 1 1-2.999.001 1.5 1.5 0 0 1 2.999-.001zM1051 149.5a1.5 1.5 0 1 1-2.999.001 1.5 1.5 0 0 1 2.999-.001zM1071 149.5a1.5 1.5 0 1 1-2.999.001 1.5 1.5 0 0 1 2.999-.001zM1091 149.5a1.5 1.5 0 1 1-2.999.001 1.5 1.5 0 0 1 2.999-.001zM911 169.5a1.5 1.5 0 1 1-3.001-.001 1.5 1.5 0 0 1 3.001.001zM931 169.5a1.5 1.5 0 1 1-3.001-.001 1.5 1.5 0 0 1 3.001.001zM951 169.5a1.5 1.5 0 1 1-3.001-.001 1.5 1.5 0 0 1 3.001.001zM971 169.5a1.5 1.5 0 1 1-3.001-.001 1.5 1.5 0 0 1 3.001.001zM991 169.5a1.5 1.5 0 1 1-3.001-.001 1.5 1.5 0 0 1 3.001.001zM1011 169.5a1.5 1.5 0 1 1-2.999.001 1.5 1.5 0 0 1 2.999-.001zM1031 169.5a1.5 1.5 0 1 1-2.999.001 1.5 1.5 0 0 1 2.999-.001zM1051 169.5a1.5 1.5 0 1 1-2.999.001 1.5 1.5 0 0 1 2.999-.001zM1071 169.5a1.5 1.5 0 1 1-2.999.001 1.5 1.5 0 0 1 2.999-.001zM1091 169.5a1.5 1.5 0 1 1-2.999.001 1.5 1.5 0 0 1 2.999-.001zM911 189.5a1.5 1.5 0 1 1-3.001-.001 1.5 1.5 0 0 1 3.001.001zM931 189.5a1.5 1.5 0 1 1-3.001-.001 1.5 1.5 0 0 1 3.001.001zM951 189.5a1.5 1.5 0 1 1-3.001-.001 1.5 1.5 0 0 1 3.001.001zM971 189.5a1.5 1.5 0 1 1-3.001-.001 1.5 1.5 0 0 1 3.001.001zM991 189.5a1.5 1.5 0 1 1-3.001-.001 1.5 1.5 0 0 1 3.001.001zM1011 189.5a1.5 1.5 0 1 1-2.999.001 1.5 1.5 0 0 1 2.999-.001zM1031 189.5a1.5 1.5 0 1 1-2.999.001 1.5 1.5 0 0 1 2.999-.001zM1051 189.5a1.5 1.5 0 1 1-2.999.001 1.5 1.5 0 0 1 2.999-.001zM1071 189.5a1.5 1.5 0 1 1-2.999.001 1.5 1.5 0 0 1 2.999-.001zM1091 189.5a1.5 1.5 0 1 1-2.999.001 1.5 1.5 0 0 1 2.999-.001zM911 209.5a1.5 1.5 0 1 1-3.001-.001 1.5 1.5 0 0 1 3.001.001zM931 209.5a1.5 1.5 0 1 1-3.001-.001 1.5 1.5 0 0 1 3.001.001zM951 209.5a1.5 1.5 0 1 1-3.001-.001 1.5 1.5 0 0 1 3.001.001zM971 209.5a1.5 1.5 0 1 1-3.001-.001 1.5 1.5 0 0 1 3.001.001zM991 209.5a1.5 1.5 0 1 1-3.001-.001 1.5 1.5 0 0 1 3.001.001zM1011 209.5a1.5 1.5 0 1 1-2.999.001 1.5 1.5 0 0 1 2.999-.001zM1031 209.5a1.5 1.5 0 1 1-2.999.001 1.5 1.5 0 0 1 2.999-.001zM1051 209.5a1.5 1.5 0 1 1-2.999.001 1.5 1.5 0 0 1 2.999-.001zM1071 209.5a1.5 1.5 0 1 1-2.999.001 1.5 1.5 0 0 1 2.999-.001zM1091 209.5a1.5 1.5 0 1 1-2.999.001 1.5 1.5 0 0 1 2.999-.001zM911 229.5a1.5 1.5 0 1 1-3.001-.001 1.5 1.5 0 0 1 3.001.001zM931 229.5a1.5 1.5 0 1 1-3.001-.001 1.5 1.5 0 0 1 3.001.001zM951 229.5a1.5 1.5 0 1 1-3.001-.001 1.5 1.5 0 0 1 3.001.001zM971 229.5a1.5 1.5 0 1 1-3.001-.001 1.5 1.5 0 0 1 3.001.001zM991 229.5a1.5 1.5 0 1 1-3.001-.001 1.5 1.5 0 0 1 3.001.001zM1011 229.5a1.5 1.5 0 1 1-2.999.001 1.5 1.5 0 0 1 2.999-.001zM1031 229.5a1.5 1.5 0 1 1-2.999.001 1.5 1.5 0 0 1 2.999-.001zM1051 229.5a1.5 1.5 0 1 1-2.999.001 1.5 1.5 0 0 1 2.999-.001zM1071 229.5a1.5 1.5 0 1 1-2.999.001 1.5 1.5 0 0 1 2.999-.001zM1091 229.5a1.5 1.5 0 1 1-2.999.001 1.5 1.5 0 0 1 2.999-.001zM11 249.5a1.5 1.5 0 1 1-3 0 1.5 1.5 0 0 1 3 0zM31 249.5a1.5 1.5 0 1 1-3 0 1.5 1.5 0 0 1 3 0zM51 249.5a1.5 1.5 0 1 1-3 0 1.5 1.5 0 0 1 3 0zM71 249.5a1.5 1.5 0 1 1-3 0 1.5 1.5 0 0 1 3 0zM91 249.5a1.5 1.5 0 1 1-3 0 1.5 1.5 0 0 1 3 0zM111 249.5a1.5 1.5 0 1 1-3.001-.001 1.5 1.5 0 0 1 3.001.001zM131 249.5a1.5 1.5 0 1 1-3.001-.001 1.5 1.5 0 0 1 3.001.001zM151 249.5a1.5 1.5 0 1 1-3.001-.001 1.5 1.5 0 0 1 3.001.001zM171 249.5a1.5 1.5 0 1 1-3.001-.001 1.5 1.5 0 0 1 3.001.001zM191 249.5a1.5 1.5 0 1 1-3.001-.001 1.5 1.5 0 0 1 3.001.001zM211 249.5a1.5 1.5 0 1 1-3.001-.001 1.5 1.5 0 0 1 3.001.001zM231 249.5a1.5 1.5 0 1 1-3.001-.001 1.5 1.5 0 0 1 3.001.001zM251 249.5a1.5 1.5 0 1 1-3.001-.001 1.5 1.5 0 0 1 3.001.001zM271 249.5a1.5 1.5 0 1 1-3.001-.001 1.5 1.5 0 0 1 3.001.001zM291 249.5a1.5 1.5 0 1 1-3.001-.001 1.5 1.5 0 0 1 3.001.001zM11 269.5a1.5 1.5 0 1 1-3 0 1.5 1.5 0 0 1 3 0zM31 269.5a1.5 1.5 0 1 1-3 0 1.5 1.5 0 0 1 3 0zM51 269.5a1.5 1.5 0 1 1-3 0 1.5 1.5 0 0 1 3 0zM71 269.5a1.5 1.5 0 1 1-3 0 1.5 1.5 0 0 1 3 0zM91 269.5a1.5 1.5 0 1 1-3 0 1.5 1.5 0 0 1 3 0zM111 269.5a1.5 1.5 0 1 1-3.001-.001 1.5 1.5 0 0 1 3.001.001zM131 269.5a1.5 1.5 0 1 1-3.001-.001 1.5 1.5 0 0 1 3.001.001zM151 269.5a1.5 1.5 0 1 1-3.001-.001 1.5 1.5 0 0 1 3.001.001zM171 269.5a1.5 1.5 0 1 1-3.001-.001 1.5 1.5 0 0 1 3.001.001zM191 269.5a1.5 1.5 0 1 1-3.001-.001 1.5 1.5 0 0 1 3.001.001zM211 269.5a1.5 1.5 0 1 1-3.001-.001 1.5 1.5 0 0 1 3.001.001zM231 269.5a1.5 1.5 0 1 1-3.001-.001 1.5 1.5 0 0 1 3.001.001zM251 269.5a1.5 1.5 0 1 1-3.001-.001 1.5 1.5 0 0 1 3.001.001zM271 269.5a1.5 1.5 0 1 1-3.001-.001 1.5 1.5 0 0 1 3.001.001zM291 269.5a1.5 1.5 0 1 1-3.001-.001 1.5 1.5 0 0 1 3.001.001zM11 289.5a1.5 1.5 0 1 1-3 0 1.5 1.5 0 0 1 3 0zM31 289.5a1.5 1.5 0 1 1-3 0 1.5 1.5 0 0 1 3 0zM51 289.5a1.5 1.5 0 1 1-3 0 1.5 1.5 0 0 1 3 0zM71 289.5a1.5 1.5 0 1 1-3 0 1.5 1.5 0 0 1 3 0zM91 289.5a1.5 1.5 0 1 1-3 0 1.5 1.5 0 0 1 3 0zM111 289.5a1.5 1.5 0 1 1-3.001-.001 1.5 1.5 0 0 1 3.001.001zM131 289.5a1.5 1.5 0 1 1-3.001-.001 1.5 1.5 0 0 1 3.001.001zM151 289.5a1.5 1.5 0 1 1-3.001-.001 1.5 1.5 0 0 1 3.001.001zM171 289.5a1.5 1.5 0 1 1-3.001-.001 1.5 1.5 0 0 1 3.001.001zM191 289.5a1.5 1.5 0 1 1-3.001-.001 1.5 1.5 0 0 1 3.001.001zM211 289.5a1.5 1.5 0 1 1-3.001-.001 1.5 1.5 0 0 1 3.001.001zM231 289.5a1.5 1.5 0 1 1-3.001-.001 1.5 1.5 0 0 1 3.001.001zM251 289.5a1.5 1.5 0 1 1-3.001-.001 1.5 1.5 0 0 1 3.001.001zM271 289.5a1.5 1.5 0 1 1-3.001-.001 1.5 1.5 0 0 1 3.001.001zM291 289.5a1.5 1.5 0 1 1-3.001-.001 1.5 1.5 0 0 1 3.001.001zM11 309.5a1.5 1.5 0 1 1-3 0 1.5 1.5 0 0 1 3 0zM31 309.5a1.5 1.5 0 1 1-3 0 1.5 1.5 0 0 1 3 0zM51 309.5a1.5 1.5 0 1 1-3 0 1.5 1.5 0 0 1 3 0zM71 309.5a1.5 1.5 0 1 1-3 0 1.5 1.5 0 0 1 3 0zM91 309.5a1.5 1.5 0 1 1-3 0 1.5 1.5 0 0 1 3 0zM111 309.5a1.5 1.5 0 1 1-3.001-.001 1.5 1.5 0 0 1 3.001.001zM131 309.5a1.5 1.5 0 1 1-3.001-.001 1.5 1.5 0 0 1 3.001.001zM151 309.5a1.5 1.5 0 1 1-3.001-.001 1.5 1.5 0 0 1 3.001.001zM171 309.5a1.5 1.5 0 1 1-3.001-.001 1.5 1.5 0 0 1 3.001.001zM191 309.5a1.5 1.5 0 1 1-3.001-.001 1.5 1.5 0 0 1 3.001.001zM211 309.5a1.5 1.5 0 1 1-3.001-.001 1.5 1.5 0 0 1 3.001.001zM231 309.5a1.5 1.5 0 1 1-3.001-.001 1.5 1.5 0 0 1 3.001.001zM251 309.5a1.5 1.5 0 1 1-3.001-.001 1.5 1.5 0 0 1 3.001.001zM271 309.5a1.5 1.5 0 1 1-3.001-.001 1.5 1.5 0 0 1 3.001.001zM291 309.5a1.5 1.5 0 1 1-3.001-.001 1.5 1.5 0 0 1 3.001.001zM11 329.5a1.5 1.5 0 1 1-3 0 1.5 1.5 0 0 1 3 0zM31 329.5a1.5 1.5 0 1 1-3 0 1.5 1.5 0 0 1 3 0zM51 329.5a1.5 1.5 0 1 1-3 0 1.5 1.5 0 0 1 3 0zM71 329.5a1.5 1.5 0 1 1-3 0 1.5 1.5 0 0 1 3 0zM91 329.5a1.5 1.5 0 1 1-3 0 1.5 1.5 0 0 1 3 0zM111 329.5a1.5 1.5 0 1 1-3.001-.001 1.5 1.5 0 0 1 3.001.001zM131 329.5a1.5 1.5 0 1 1-3.001-.001 1.5 1.5 0 0 1 3.001.001zM151 329.5a1.5 1.5 0 1 1-3.001-.001 1.5 1.5 0 0 1 3.001.001zM171 329.5a1.5 1.5 0 1 1-3.001-.001 1.5 1.5 0 0 1 3.001.001zM191 329.5a1.5 1.5 0 1 1-3.001-.001 1.5 1.5 0 0 1 3.001.001zM211 329.5a1.5 1.5 0 1 1-3.001-.001 1.5 1.5 0 0 1 3.001.001zM231 329.5a1.5 1.5 0 1 1-3.001-.001 1.5 1.5 0 0 1 3.001.001zM251 329.5a1.5 1.5 0 1 1-3.001-.001 1.5 1.5 0 0 1 3.001.001zM271 329.5a1.5 1.5 0 1 1-3.001-.001 1.5 1.5 0 0 1 3.001.001zM291 329.5a1.5 1.5 0 1 1-3.001-.001 1.5 1.5 0 0 1 3.001.001zM11 349.5a1.5 1.5 0 1 1-3 0 1.5 1.5 0 0 1 3 0zM31 349.5a1.5 1.5 0 1 1-3 0 1.5 1.5 0 0 1 3 0zM51 349.5a1.5 1.5 0 1 1-3 0 1.5 1.5 0 0 1 3 0zM71 349.5a1.5 1.5 0 1 1-3 0 1.5 1.5 0 0 1 3 0zM91 349.5a1.5 1.5 0 1 1-3 0 1.5 1.5 0 0 1 3 0zM111 349.5a1.5 1.5 0 1 1-3.001-.001 1.5 1.5 0 0 1 3.001.001zM131 349.5a1.5 1.5 0 1 1-3.001-.001 1.5 1.5 0 0 1 3.001.001zM151 349.5a1.5 1.5 0 1 1-3.001-.001 1.5 1.5 0 0 1 3.001.001zM171 349.5a1.5 1.5 0 1 1-3.001-.001 1.5 1.5 0 0 1 3.001.001zM191 349.5a1.5 1.5 0 1 1-3.001-.001 1.5 1.5 0 0 1 3.001.001zM211 349.5a1.5 1.5 0 1 1-3.001-.001 1.5 1.5 0 0 1 3.001.001zM231 349.5a1.5 1.5 0 1 1-3.001-.001 1.5 1.5 0 0 1 3.001.001zM251 349.5a1.5 1.5 0 1 1-3.001-.001 1.5 1.5 0 0 1 3.001.001zM271 349.5a1.5 1.5 0 1 1-3.001-.001 1.5 1.5 0 0 1 3.001.001zM291 349.5a1.5 1.5 0 1 1-3.001-.001 1.5 1.5 0 0 1 3.001.001zM11 369.5a1.5 1.5 0 1 1-3 0 1.5 1.5 0 0 1 3 0zM31 369.5a1.5 1.5 0 1 1-3 0 1.5 1.5 0 0 1 3 0zM51 369.5a1.5 1.5 0 1 1-3 0 1.5 1.5 0 0 1 3 0zM71 369.5a1.5 1.5 0 1 1-3 0 1.5 1.5 0 0 1 3 0zM91 369.5a1.5 1.5 0 1 1-3 0 1.5 1.5 0 0 1 3 0zM111 369.5a1.5 1.5 0 1 1-3.001-.001 1.5 1.5 0 0 1 3.001.001zM131 369.5a1.5 1.5 0 1 1-3.001-.001 1.5 1.5 0 0 1 3.001.001zM151 369.5a1.5 1.5 0 1 1-3.001-.001 1.5 1.5 0 0 1 3.001.001zM171 369.5a1.5 1.5 0 1 1-3.001-.001 1.5 1.5 0 0 1 3.001.001zM191 369.5a1.5 1.5 0 1 1-3.001-.001 1.5 1.5 0 0 1 3.001.001zM211 369.5a1.5 1.5 0 1 1-3.001-.001 1.5 1.5 0 0 1 3.001.001zM231 369.5a1.5 1.5 0 1 1-3.001-.001 1.5 1.5 0 0 1 3.001.001zM251 369.5a1.5 1.5 0 1 1-3.001-.001 1.5 1.5 0 0 1 3.001.001zM271 369.5a1.5 1.5 0 1 1-3.001-.001 1.5 1.5 0 0 1 3.001.001zM291 369.5a1.5 1.5 0 1 1-3.001-.001 1.5 1.5 0 0 1 3.001.001zM11 389.5a1.5 1.5 0 1 1-3 0 1.5 1.5 0 0 1 3 0zM31 389.5a1.5 1.5 0 1 1-3 0 1.5 1.5 0 0 1 3 0zM51 389.5a1.5 1.5 0 1 1-3 0 1.5 1.5 0 0 1 3 0zM71 389.5a1.5 1.5 0 1 1-3 0 1.5 1.5 0 0 1 3 0zM91 389.5a1.5 1.5 0 1 1-3 0 1.5 1.5 0 0 1 3 0zM111 389.5a1.5 1.5 0 1 1-3.001-.001 1.5 1.5 0 0 1 3.001.001zM131 389.5a1.5 1.5 0 1 1-3.001-.001 1.5 1.5 0 0 1 3.001.001zM151 389.5a1.5 1.5 0 1 1-3.001-.001 1.5 1.5 0 0 1 3.001.001zM171 389.5a1.5 1.5 0 1 1-3.001-.001 1.5 1.5 0 0 1 3.001.001zM191 389.5a1.5 1.5 0 1 1-3.001-.001 1.5 1.5 0 0 1 3.001.001zM211 389.5a1.5 1.5 0 1 1-3.001-.001 1.5 1.5 0 0 1 3.001.001zM231 389.5a1.5 1.5 0 1 1-3.001-.001 1.5 1.5 0 0 1 3.001.001zM251 389.5a1.5 1.5 0 1 1-3.001-.001 1.5 1.5 0 0 1 3.001.001zM271 389.5a1.5 1.5 0 1 1-3.001-.001 1.5 1.5 0 0 1 3.001.001zM291 389.5a1.5 1.5 0 1 1-3.001-.001 1.5 1.5 0 0 1 3.001.001zM11 409.5a1.5 1.5 0 1 1-3 0 1.5 1.5 0 0 1 3 0zM31 409.5a1.5 1.5 0 1 1-3 0 1.5 1.5 0 0 1 3 0zM51 409.5a1.5 1.5 0 1 1-3 0 1.5 1.5 0 0 1 3 0zM71 409.5a1.5 1.5 0 1 1-3 0 1.5 1.5 0 0 1 3 0zM91 409.5a1.5 1.5 0 1 1-3 0 1.5 1.5 0 0 1 3 0zM111 409.5a1.5 1.5 0 1 1-3.001-.001 1.5 1.5 0 0 1 3.001.001zM131 409.5a1.5 1.5 0 1 1-3.001-.001 1.5 1.5 0 0 1 3.001.001zM151 409.5a1.5 1.5 0 1 1-3.001-.001 1.5 1.5 0 0 1 3.001.001zM171 409.5a1.5 1.5 0 1 1-3.001-.001 1.5 1.5 0 0 1 3.001.001zM191 409.5a1.5 1.5 0 1 1-3.001-.001 1.5 1.5 0 0 1 3.001.001zM211 409.5a1.5 1.5 0 1 1-3.001-.001 1.5 1.5 0 0 1 3.001.001zM231 409.5a1.5 1.5 0 1 1-3.001-.001 1.5 1.5 0 0 1 3.001.001zM251 409.5a1.5 1.5 0 1 1-3.001-.001 1.5 1.5 0 0 1 3.001.001zM271 409.5a1.5 1.5 0 1 1-3.001-.001 1.5 1.5 0 0 1 3.001.001zM291 409.5a1.5 1.5 0 1 1-3.001-.001 1.5 1.5 0 0 1 3.001.001zM11 429.5a1.5 1.5 0 1 1-3 0 1.5 1.5 0 0 1 3 0zM31 429.5a1.5 1.5 0 1 1-3 0 1.5 1.5 0 0 1 3 0zM51 429.5a1.5 1.5 0 1 1-3 0 1.5 1.5 0 0 1 3 0zM71 429.5a1.5 1.5 0 1 1-3 0 1.5 1.5 0 0 1 3 0zM91 429.5a1.5 1.5 0 1 1-3 0 1.5 1.5 0 0 1 3 0zM111 429.5a1.5 1.5 0 1 1-3.001-.001 1.5 1.5 0 0 1 3.001.001zM131 429.5a1.5 1.5 0 1 1-3.001-.001 1.5 1.5 0 0 1 3.001.001zM151 429.5a1.5 1.5 0 1 1-3.001-.001 1.5 1.5 0 0 1 3.001.001zM171 429.5a1.5 1.5 0 1 1-3.001-.001 1.5 1.5 0 0 1 3.001.001zM191 429.5a1.5 1.5 0 1 1-3.001-.001 1.5 1.5 0 0 1 3.001.001zM211 429.5a1.5 1.5 0 1 1-3.001-.001 1.5 1.5 0 0 1 3.001.001zM231 429.5a1.5 1.5 0 1 1-3.001-.001 1.5 1.5 0 0 1 3.001.001zM251 429.5a1.5 1.5 0 1 1-3.001-.001 1.5 1.5 0 0 1 3.001.001zM271 429.5a1.5 1.5 0 1 1-3.001-.001 1.5 1.5 0 0 1 3.001.001zM291 429.5a1.5 1.5 0 1 1-3.001-.001 1.5 1.5 0 0 1 3.001.001zM11 449.5a1.5 1.5 0 1 1-3 0 1.5 1.5 0 0 1 3 0zM31 449.5a1.5 1.5 0 1 1-3 0 1.5 1.5 0 0 1 3 0zM51 449.5a1.5 1.5 0 1 1-3 0 1.5 1.5 0 0 1 3 0zM71 449.5a1.5 1.5 0 1 1-3 0 1.5 1.5 0 0 1 3 0zM91 449.5a1.5 1.5 0 1 1-3 0 1.5 1.5 0 0 1 3 0zM111 449.5a1.5 1.5 0 1 1-3.001-.001 1.5 1.5 0 0 1 3.001.001zM131 449.5a1.5 1.5 0 1 1-3.001-.001 1.5 1.5 0 0 1 3.001.001zM151 449.5a1.5 1.5 0 1 1-3.001-.001 1.5 1.5 0 0 1 3.001.001zM171 449.5a1.5 1.5 0 1 1-3.001-.001 1.5 1.5 0 0 1 3.001.001zM191 449.5a1.5 1.5 0 1 1-3.001-.001 1.5 1.5 0 0 1 3.001.001zM211 449.5a1.5 1.5 0 1 1-3.001-.001 1.5 1.5 0 0 1 3.001.001zM231 449.5a1.5 1.5 0 1 1-3.001-.001 1.5 1.5 0 0 1 3.001.001zM251 449.5a1.5 1.5 0 1 1-3.001-.001 1.5 1.5 0 0 1 3.001.001zM271 449.5a1.5 1.5 0 1 1-3.001-.001 1.5 1.5 0 0 1 3.001.001zM291 449.5a1.5 1.5 0 1 1-3.001-.001 1.5 1.5 0 0 1 3.001.001zM11 469.5a1.5 1.5 0 1 1-3 0 1.5 1.5 0 0 1 3 0zM31 469.5a1.5 1.5 0 1 1-3 0 1.5 1.5 0 0 1 3 0zM51 469.5a1.5 1.5 0 1 1-3 0 1.5 1.5 0 0 1 3 0zM71 469.5a1.5 1.5 0 1 1-3 0 1.5 1.5 0 0 1 3 0zM91 469.5a1.5 1.5 0 1 1-3 0 1.5 1.5 0 0 1 3 0zM111 469.5a1.5 1.5 0 1 1-3.001-.001 1.5 1.5 0 0 1 3.001.001zM131 469.5a1.5 1.5 0 1 1-3.001-.001 1.5 1.5 0 0 1 3.001.001zM151 469.5a1.5 1.5 0 1 1-3.001-.001 1.5 1.5 0 0 1 3.001.001zM171 469.5a1.5 1.5 0 1 1-3.001-.001 1.5 1.5 0 0 1 3.001.001zM191 469.5a1.5 1.5 0 1 1-3.001-.001 1.5 1.5 0 0 1 3.001.001zM211 469.5a1.5 1.5 0 1 1-3.001-.001 1.5 1.5 0 0 1 3.001.001zM231 469.5a1.5 1.5 0 1 1-3.001-.001 1.5 1.5 0 0 1 3.001.001zM251 469.5a1.5 1.5 0 1 1-3.001-.001 1.5 1.5 0 0 1 3.001.001zM271 469.5a1.5 1.5 0 1 1-3.001-.001 1.5 1.5 0 0 1 3.001.001zM291 469.5a1.5 1.5 0 1 1-3.001-.001 1.5 1.5 0 0 1 3.001.001zM311 249.5a1.5 1.5 0 1 1-3.001-.001 1.5 1.5 0 0 1 3.001.001zM331 249.5a1.5 1.5 0 1 1-3.001-.001 1.5 1.5 0 0 1 3.001.001zM351 249.5a1.5 1.5 0 1 1-3.001-.001 1.5 1.5 0 0 1 3.001.001zM371 249.5a1.5 1.5 0 1 1-3.001-.001 1.5 1.5 0 0 1 3.001.001zM391 249.5a1.5 1.5 0 1 1-3.001-.001 1.5 1.5 0 0 1 3.001.001zM411 249.5a1.5 1.5 0 1 1-3.001-.001 1.5 1.5 0 0 1 3.001.001zM431 249.5a1.5 1.5 0 1 1-3.001-.001 1.5 1.5 0 0 1 3.001.001zM451 249.5a1.5 1.5 0 1 1-3.001-.001 1.5 1.5 0 0 1 3.001.001zM471 249.5a1.5 1.5 0 1 1-3.001-.001 1.5 1.5 0 0 1 3.001.001zM491 249.5a1.5 1.5 0 1 1-3.001-.001 1.5 1.5 0 0 1 3.001.001zM511 249.5a1.5 1.5 0 1 1-3.001-.001 1.5 1.5 0 0 1 3.001.001zM531 249.5a1.5 1.5 0 1 1-3.001-.001 1.5 1.5 0 0 1 3.001.001zM551 249.5a1.5 1.5 0 1 1-3.001-.001 1.5 1.5 0 0 1 3.001.001zM571 249.5a1.5 1.5 0 1 1-3.001-.001 1.5 1.5 0 0 1 3.001.001zM591 249.5a1.5 1.5 0 1 1-3.001-.001 1.5 1.5 0 0 1 3.001.001zM311 269.5a1.5 1.5 0 1 1-3.001-.001 1.5 1.5 0 0 1 3.001.001zM331 269.5a1.5 1.5 0 1 1-3.001-.001 1.5 1.5 0 0 1 3.001.001zM351 269.5a1.5 1.5 0 1 1-3.001-.001 1.5 1.5 0 0 1 3.001.001zM371 269.5a1.5 1.5 0 1 1-3.001-.001 1.5 1.5 0 0 1 3.001.001zM391 269.5a1.5 1.5 0 1 1-3.001-.001 1.5 1.5 0 0 1 3.001.001zM411 269.5a1.5 1.5 0 1 1-3.001-.001 1.5 1.5 0 0 1 3.001.001zM431 269.5a1.5 1.5 0 1 1-3.001-.001 1.5 1.5 0 0 1 3.001.001zM451 269.5a1.5 1.5 0 1 1-3.001-.001 1.5 1.5 0 0 1 3.001.001zM471 269.5a1.5 1.5 0 1 1-3.001-.001 1.5 1.5 0 0 1 3.001.001zM491 269.5a1.5 1.5 0 1 1-3.001-.001 1.5 1.5 0 0 1 3.001.001zM511 269.5a1.5 1.5 0 1 1-3.001-.001 1.5 1.5 0 0 1 3.001.001zM531 269.5a1.5 1.5 0 1 1-3.001-.001 1.5 1.5 0 0 1 3.001.001zM551 269.5a1.5 1.5 0 1 1-3.001-.001 1.5 1.5 0 0 1 3.001.001zM571 269.5a1.5 1.5 0 1 1-3.001-.001 1.5 1.5 0 0 1 3.001.001zM591 269.5a1.5 1.5 0 1 1-3.001-.001 1.5 1.5 0 0 1 3.001.001zM311 289.5a1.5 1.5 0 1 1-3.001-.001 1.5 1.5 0 0 1 3.001.001zM331 289.5a1.5 1.5 0 1 1-3.001-.001 1.5 1.5 0 0 1 3.001.001zM351 289.5a1.5 1.5 0 1 1-3.001-.001 1.5 1.5 0 0 1 3.001.001zM371 289.5a1.5 1.5 0 1 1-3.001-.001 1.5 1.5 0 0 1 3.001.001zM391 289.5a1.5 1.5 0 1 1-3.001-.001 1.5 1.5 0 0 1 3.001.001zM411 289.5a1.5 1.5 0 1 1-3.001-.001 1.5 1.5 0 0 1 3.001.001zM431 289.5a1.5 1.5 0 1 1-3.001-.001 1.5 1.5 0 0 1 3.001.001zM451 289.5a1.5 1.5 0 1 1-3.001-.001 1.5 1.5 0 0 1 3.001.001zM471 289.5a1.5 1.5 0 1 1-3.001-.001 1.5 1.5 0 0 1 3.001.001zM491 289.5a1.5 1.5 0 1 1-3.001-.001 1.5 1.5 0 0 1 3.001.001zM511 289.5a1.5 1.5 0 1 1-3.001-.001 1.5 1.5 0 0 1 3.001.001zM531 289.5a1.5 1.5 0 1 1-3.001-.001 1.5 1.5 0 0 1 3.001.001zM551 289.5a1.5 1.5 0 1 1-3.001-.001 1.5 1.5 0 0 1 3.001.001zM571 289.5a1.5 1.5 0 1 1-3.001-.001 1.5 1.5 0 0 1 3.001.001zM591 289.5a1.5 1.5 0 1 1-3.001-.001 1.5 1.5 0 0 1 3.001.001zM311 309.5a1.5 1.5 0 1 1-3.001-.001 1.5 1.5 0 0 1 3.001.001zM331 309.5a1.5 1.5 0 1 1-3.001-.001 1.5 1.5 0 0 1 3.001.001zM351 309.5a1.5 1.5 0 1 1-3.001-.001 1.5 1.5 0 0 1 3.001.001zM371 309.5a1.5 1.5 0 1 1-3.001-.001 1.5 1.5 0 0 1 3.001.001zM391 309.5a1.5 1.5 0 1 1-3.001-.001 1.5 1.5 0 0 1 3.001.001zM411 309.5a1.5 1.5 0 1 1-3.001-.001 1.5 1.5 0 0 1 3.001.001zM431 309.5a1.5 1.5 0 1 1-3.001-.001 1.5 1.5 0 0 1 3.001.001zM451 309.5a1.5 1.5 0 1 1-3.001-.001 1.5 1.5 0 0 1 3.001.001zM471 309.5a1.5 1.5 0 1 1-3.001-.001 1.5 1.5 0 0 1 3.001.001zM491 309.5a1.5 1.5 0 1 1-3.001-.001 1.5 1.5 0 0 1 3.001.001zM511 309.5a1.5 1.5 0 1 1-3.001-.001 1.5 1.5 0 0 1 3.001.001zM531 309.5a1.5 1.5 0 1 1-3.001-.001 1.5 1.5 0 0 1 3.001.001zM551 309.5a1.5 1.5 0 1 1-3.001-.001 1.5 1.5 0 0 1 3.001.001zM571 309.5a1.5 1.5 0 1 1-3.001-.001 1.5 1.5 0 0 1 3.001.001zM591 309.5a1.5 1.5 0 1 1-3.001-.001 1.5 1.5 0 0 1 3.001.001zM311 329.5a1.5 1.5 0 1 1-3.001-.001 1.5 1.5 0 0 1 3.001.001zM331 329.5a1.5 1.5 0 1 1-3.001-.001 1.5 1.5 0 0 1 3.001.001zM351 329.5a1.5 1.5 0 1 1-3.001-.001 1.5 1.5 0 0 1 3.001.001zM371 329.5a1.5 1.5 0 1 1-3.001-.001 1.5 1.5 0 0 1 3.001.001zM391 329.5a1.5 1.5 0 1 1-3.001-.001 1.5 1.5 0 0 1 3.001.001zM411 329.5a1.5 1.5 0 1 1-3.001-.001 1.5 1.5 0 0 1 3.001.001zM431 329.5a1.5 1.5 0 1 1-3.001-.001 1.5 1.5 0 0 1 3.001.001zM451 329.5a1.5 1.5 0 1 1-3.001-.001 1.5 1.5 0 0 1 3.001.001zM471 329.5a1.5 1.5 0 1 1-3.001-.001 1.5 1.5 0 0 1 3.001.001zM491 329.5a1.5 1.5 0 1 1-3.001-.001 1.5 1.5 0 0 1 3.001.001zM511 329.5a1.5 1.5 0 1 1-3.001-.001 1.5 1.5 0 0 1 3.001.001zM531 329.5a1.5 1.5 0 1 1-3.001-.001 1.5 1.5 0 0 1 3.001.001zM551 329.5a1.5 1.5 0 1 1-3.001-.001 1.5 1.5 0 0 1 3.001.001zM571 329.5a1.5 1.5 0 1 1-3.001-.001 1.5 1.5 0 0 1 3.001.001zM591 329.5a1.5 1.5 0 1 1-3.001-.001 1.5 1.5 0 0 1 3.001.001zM311 349.5a1.5 1.5 0 1 1-3.001-.001 1.5 1.5 0 0 1 3.001.001zM331 349.5a1.5 1.5 0 1 1-3.001-.001 1.5 1.5 0 0 1 3.001.001zM351 349.5a1.5 1.5 0 1 1-3.001-.001 1.5 1.5 0 0 1 3.001.001zM371 349.5a1.5 1.5 0 1 1-3.001-.001 1.5 1.5 0 0 1 3.001.001zM391 349.5a1.5 1.5 0 1 1-3.001-.001 1.5 1.5 0 0 1 3.001.001zM411 349.5a1.5 1.5 0 1 1-3.001-.001 1.5 1.5 0 0 1 3.001.001zM431 349.5a1.5 1.5 0 1 1-3.001-.001 1.5 1.5 0 0 1 3.001.001zM451 349.5a1.5 1.5 0 1 1-3.001-.001 1.5 1.5 0 0 1 3.001.001zM471 349.5a1.5 1.5 0 1 1-3.001-.001 1.5 1.5 0 0 1 3.001.001zM491 349.5a1.5 1.5 0 1 1-3.001-.001 1.5 1.5 0 0 1 3.001.001zM511 349.5a1.5 1.5 0 1 1-3.001-.001 1.5 1.5 0 0 1 3.001.001zM531 349.5a1.5 1.5 0 1 1-3.001-.001 1.5 1.5 0 0 1 3.001.001zM551 349.5a1.5 1.5 0 1 1-3.001-.001 1.5 1.5 0 0 1 3.001.001zM571 349.5a1.5 1.5 0 1 1-3.001-.001 1.5 1.5 0 0 1 3.001.001zM591 349.5a1.5 1.5 0 1 1-3.001-.001 1.5 1.5 0 0 1 3.001.001zM311 369.5a1.5 1.5 0 1 1-3.001-.001 1.5 1.5 0 0 1 3.001.001zM331 369.5a1.5 1.5 0 1 1-3.001-.001 1.5 1.5 0 0 1 3.001.001zM351 369.5a1.5 1.5 0 1 1-3.001-.001 1.5 1.5 0 0 1 3.001.001zM371 369.5a1.5 1.5 0 1 1-3.001-.001 1.5 1.5 0 0 1 3.001.001zM391 369.5a1.5 1.5 0 1 1-3.001-.001 1.5 1.5 0 0 1 3.001.001zM411 369.5a1.5 1.5 0 1 1-3.001-.001 1.5 1.5 0 0 1 3.001.001zM431 369.5a1.5 1.5 0 1 1-3.001-.001 1.5 1.5 0 0 1 3.001.001zM451 369.5a1.5 1.5 0 1 1-3.001-.001 1.5 1.5 0 0 1 3.001.001zM471 369.5a1.5 1.5 0 1 1-3.001-.001 1.5 1.5 0 0 1 3.001.001zM491 369.5a1.5 1.5 0 1 1-3.001-.001 1.5 1.5 0 0 1 3.001.001zM511 369.5a1.5 1.5 0 1 1-3.001-.001 1.5 1.5 0 0 1 3.001.001zM531 369.5a1.5 1.5 0 1 1-3.001-.001 1.5 1.5 0 0 1 3.001.001zM551 369.5a1.5 1.5 0 1 1-3.001-.001 1.5 1.5 0 0 1 3.001.001zM571 369.5a1.5 1.5 0 1 1-3.001-.001 1.5 1.5 0 0 1 3.001.001zM591 369.5a1.5 1.5 0 1 1-3.001-.001 1.5 1.5 0 0 1 3.001.001zM311 389.5a1.5 1.5 0 1 1-3.001-.001 1.5 1.5 0 0 1 3.001.001zM331 389.5a1.5 1.5 0 1 1-3.001-.001 1.5 1.5 0 0 1 3.001.001zM351 389.5a1.5 1.5 0 1 1-3.001-.001 1.5 1.5 0 0 1 3.001.001zM371 389.5a1.5 1.5 0 1 1-3.001-.001 1.5 1.5 0 0 1 3.001.001zM391 389.5a1.5 1.5 0 1 1-3.001-.001 1.5 1.5 0 0 1 3.001.001zM411 389.5a1.5 1.5 0 1 1-3.001-.001 1.5 1.5 0 0 1 3.001.001zM431 389.5a1.5 1.5 0 1 1-3.001-.001 1.5 1.5 0 0 1 3.001.001zM451 389.5a1.5 1.5 0 1 1-3.001-.001 1.5 1.5 0 0 1 3.001.001zM471 389.5a1.5 1.5 0 1 1-3.001-.001 1.5 1.5 0 0 1 3.001.001zM491 389.5a1.5 1.5 0 1 1-3.001-.001 1.5 1.5 0 0 1 3.001.001zM511 389.5a1.5 1.5 0 1 1-3.001-.001 1.5 1.5 0 0 1 3.001.001zM531 389.5a1.5 1.5 0 1 1-3.001-.001 1.5 1.5 0 0 1 3.001.001zM551 389.5a1.5 1.5 0 1 1-3.001-.001 1.5 1.5 0 0 1 3.001.001zM571 389.5a1.5 1.5 0 1 1-3.001-.001 1.5 1.5 0 0 1 3.001.001zM591 389.5a1.5 1.5 0 1 1-3.001-.001 1.5 1.5 0 0 1 3.001.001zM311 409.5a1.5 1.5 0 1 1-3.001-.001 1.5 1.5 0 0 1 3.001.001zM331 409.5a1.5 1.5 0 1 1-3.001-.001 1.5 1.5 0 0 1 3.001.001zM351 409.5a1.5 1.5 0 1 1-3.001-.001 1.5 1.5 0 0 1 3.001.001zM371 409.5a1.5 1.5 0 1 1-3.001-.001 1.5 1.5 0 0 1 3.001.001zM391 409.5a1.5 1.5 0 1 1-3.001-.001 1.5 1.5 0 0 1 3.001.001zM411 409.5a1.5 1.5 0 1 1-3.001-.001 1.5 1.5 0 0 1 3.001.001zM431 409.5a1.5 1.5 0 1 1-3.001-.001 1.5 1.5 0 0 1 3.001.001zM451 409.5a1.5 1.5 0 1 1-3.001-.001 1.5 1.5 0 0 1 3.001.001zM471 409.5a1.5 1.5 0 1 1-3.001-.001 1.5 1.5 0 0 1 3.001.001zM491 409.5a1.5 1.5 0 1 1-3.001-.001 1.5 1.5 0 0 1 3.001.001zM511 409.5a1.5 1.5 0 1 1-3.001-.001 1.5 1.5 0 0 1 3.001.001zM531 409.5a1.5 1.5 0 1 1-3.001-.001 1.5 1.5 0 0 1 3.001.001zM551 409.5a1.5 1.5 0 1 1-3.001-.001 1.5 1.5 0 0 1 3.001.001zM571 409.5a1.5 1.5 0 1 1-3.001-.001 1.5 1.5 0 0 1 3.001.001zM591 409.5a1.5 1.5 0 1 1-3.001-.001 1.5 1.5 0 0 1 3.001.001zM311 429.5a1.5 1.5 0 1 1-3.001-.001 1.5 1.5 0 0 1 3.001.001zM331 429.5a1.5 1.5 0 1 1-3.001-.001 1.5 1.5 0 0 1 3.001.001zM351 429.5a1.5 1.5 0 1 1-3.001-.001 1.5 1.5 0 0 1 3.001.001zM371 429.5a1.5 1.5 0 1 1-3.001-.001 1.5 1.5 0 0 1 3.001.001zM391 429.5a1.5 1.5 0 1 1-3.001-.001 1.5 1.5 0 0 1 3.001.001zM411 429.5a1.5 1.5 0 1 1-3.001-.001 1.5 1.5 0 0 1 3.001.001zM431 429.5a1.5 1.5 0 1 1-3.001-.001 1.5 1.5 0 0 1 3.001.001zM451 429.5a1.5 1.5 0 1 1-3.001-.001 1.5 1.5 0 0 1 3.001.001zM471 429.5a1.5 1.5 0 1 1-3.001-.001 1.5 1.5 0 0 1 3.001.001zM491 429.5a1.5 1.5 0 1 1-3.001-.001 1.5 1.5 0 0 1 3.001.001zM511 429.5a1.5 1.5 0 1 1-3.001-.001 1.5 1.5 0 0 1 3.001.001zM531 429.5a1.5 1.5 0 1 1-3.001-.001 1.5 1.5 0 0 1 3.001.001zM551 429.5a1.5 1.5 0 1 1-3.001-.001 1.5 1.5 0 0 1 3.001.001zM571 429.5a1.5 1.5 0 1 1-3.001-.001 1.5 1.5 0 0 1 3.001.001zM591 429.5a1.5 1.5 0 1 1-3.001-.001 1.5 1.5 0 0 1 3.001.001zM311 449.5a1.5 1.5 0 1 1-3.001-.001 1.5 1.5 0 0 1 3.001.001zM331 449.5a1.5 1.5 0 1 1-3.001-.001 1.5 1.5 0 0 1 3.001.001zM351 449.5a1.5 1.5 0 1 1-3.001-.001 1.5 1.5 0 0 1 3.001.001zM371 449.5a1.5 1.5 0 1 1-3.001-.001 1.5 1.5 0 0 1 3.001.001zM391 449.5a1.5 1.5 0 1 1-3.001-.001 1.5 1.5 0 0 1 3.001.001zM411 449.5a1.5 1.5 0 1 1-3.001-.001 1.5 1.5 0 0 1 3.001.001zM431 449.5a1.5 1.5 0 1 1-3.001-.001 1.5 1.5 0 0 1 3.001.001zM451 449.5a1.5 1.5 0 1 1-3.001-.001 1.5 1.5 0 0 1 3.001.001zM471 449.5a1.5 1.5 0 1 1-3.001-.001 1.5 1.5 0 0 1 3.001.001zM491 449.5a1.5 1.5 0 1 1-3.001-.001 1.5 1.5 0 0 1 3.001.001zM511 449.5a1.5 1.5 0 1 1-3.001-.001 1.5 1.5 0 0 1 3.001.001zM531 449.5a1.5 1.5 0 1 1-3.001-.001 1.5 1.5 0 0 1 3.001.001zM551 449.5a1.5 1.5 0 1 1-3.001-.001 1.5 1.5 0 0 1 3.001.001zM571 449.5a1.5 1.5 0 1 1-3.001-.001 1.5 1.5 0 0 1 3.001.001zM591 449.5a1.5 1.5 0 1 1-3.001-.001 1.5 1.5 0 0 1 3.001.001zM311 469.5a1.5 1.5 0 1 1-3.001-.001 1.5 1.5 0 0 1 3.001.001zM331 469.5a1.5 1.5 0 1 1-3.001-.001 1.5 1.5 0 0 1 3.001.001zM351 469.5a1.5 1.5 0 1 1-3.001-.001 1.5 1.5 0 0 1 3.001.001zM371 469.5a1.5 1.5 0 1 1-3.001-.001 1.5 1.5 0 0 1 3.001.001zM391 469.5a1.5 1.5 0 1 1-3.001-.001 1.5 1.5 0 0 1 3.001.001zM411 469.5a1.5 1.5 0 1 1-3.001-.001 1.5 1.5 0 0 1 3.001.001zM431 469.5a1.5 1.5 0 1 1-3.001-.001 1.5 1.5 0 0 1 3.001.001zM451 469.5a1.5 1.5 0 1 1-3.001-.001 1.5 1.5 0 0 1 3.001.001zM471 469.5a1.5 1.5 0 1 1-3.001-.001 1.5 1.5 0 0 1 3.001.001zM491 469.5a1.5 1.5 0 1 1-3.001-.001 1.5 1.5 0 0 1 3.001.001zM511 469.5a1.5 1.5 0 1 1-3.001-.001 1.5 1.5 0 0 1 3.001.001zM531 469.5a1.5 1.5 0 1 1-3.001-.001 1.5 1.5 0 0 1 3.001.001zM551 469.5a1.5 1.5 0 1 1-3.001-.001 1.5 1.5 0 0 1 3.001.001zM571 469.5a1.5 1.5 0 1 1-3.001-.001 1.5 1.5 0 0 1 3.001.001zM591 469.5a1.5 1.5 0 1 1-3.001-.001 1.5 1.5 0 0 1 3.001.001zM611 249.5a1.5 1.5 0 1 1-3.001-.001 1.5 1.5 0 0 1 3.001.001zM631 249.5a1.5 1.5 0 1 1-3.001-.001 1.5 1.5 0 0 1 3.001.001zM651 249.5a1.5 1.5 0 1 1-3.001-.001 1.5 1.5 0 0 1 3.001.001zM671 249.5a1.5 1.5 0 1 1-3.001-.001 1.5 1.5 0 0 1 3.001.001zM691 249.5a1.5 1.5 0 1 1-3.001-.001 1.5 1.5 0 0 1 3.001.001zM711 249.5a1.5 1.5 0 1 1-3.001-.001 1.5 1.5 0 0 1 3.001.001zM731 249.5a1.5 1.5 0 1 1-3.001-.001 1.5 1.5 0 0 1 3.001.001zM751 249.5a1.5 1.5 0 1 1-3.001-.001 1.5 1.5 0 0 1 3.001.001zM771 249.5a1.5 1.5 0 1 1-3.001-.001 1.5 1.5 0 0 1 3.001.001zM791 249.5a1.5 1.5 0 1 1-3.001-.001 1.5 1.5 0 0 1 3.001.001zM811 249.5a1.5 1.5 0 1 1-3.001-.001 1.5 1.5 0 0 1 3.001.001zM831 249.5a1.5 1.5 0 1 1-3.001-.001 1.5 1.5 0 0 1 3.001.001zM851 249.5a1.5 1.5 0 1 1-3.001-.001 1.5 1.5 0 0 1 3.001.001zM871 249.5a1.5 1.5 0 1 1-3.001-.001 1.5 1.5 0 0 1 3.001.001zM891 249.5a1.5 1.5 0 1 1-3.001-.001 1.5 1.5 0 0 1 3.001.001zM611 269.5a1.5 1.5 0 1 1-3.001-.001 1.5 1.5 0 0 1 3.001.001zM631 269.5a1.5 1.5 0 1 1-3.001-.001 1.5 1.5 0 0 1 3.001.001zM651 269.5a1.5 1.5 0 1 1-3.001-.001 1.5 1.5 0 0 1 3.001.001zM671 269.5a1.5 1.5 0 1 1-3.001-.001 1.5 1.5 0 0 1 3.001.001zM691 269.5a1.5 1.5 0 1 1-3.001-.001 1.5 1.5 0 0 1 3.001.001zM711 269.5a1.5 1.5 0 1 1-3.001-.001 1.5 1.5 0 0 1 3.001.001zM731 269.5a1.5 1.5 0 1 1-3.001-.001 1.5 1.5 0 0 1 3.001.001zM751 269.5a1.5 1.5 0 1 1-3.001-.001 1.5 1.5 0 0 1 3.001.001zM771 269.5a1.5 1.5 0 1 1-3.001-.001 1.5 1.5 0 0 1 3.001.001zM791 269.5a1.5 1.5 0 1 1-3.001-.001 1.5 1.5 0 0 1 3.001.001zM811 269.5a1.5 1.5 0 1 1-3.001-.001 1.5 1.5 0 0 1 3.001.001zM831 269.5a1.5 1.5 0 1 1-3.001-.001 1.5 1.5 0 0 1 3.001.001zM851 269.5a1.5 1.5 0 1 1-3.001-.001 1.5 1.5 0 0 1 3.001.001zM871 269.5a1.5 1.5 0 1 1-3.001-.001 1.5 1.5 0 0 1 3.001.001zM891 269.5a1.5 1.5 0 1 1-3.001-.001 1.5 1.5 0 0 1 3.001.001zM611 289.5a1.5 1.5 0 1 1-3.001-.001 1.5 1.5 0 0 1 3.001.001zM631 289.5a1.5 1.5 0 1 1-3.001-.001 1.5 1.5 0 0 1 3.001.001zM651 289.5a1.5 1.5 0 1 1-3.001-.001 1.5 1.5 0 0 1 3.001.001zM671 289.5a1.5 1.5 0 1 1-3.001-.001 1.5 1.5 0 0 1 3.001.001zM691 289.5a1.5 1.5 0 1 1-3.001-.001 1.5 1.5 0 0 1 3.001.001zM711 289.5a1.5 1.5 0 1 1-3.001-.001 1.5 1.5 0 0 1 3.001.001zM731 289.5a1.5 1.5 0 1 1-3.001-.001 1.5 1.5 0 0 1 3.001.001zM751 289.5a1.5 1.5 0 1 1-3.001-.001 1.5 1.5 0 0 1 3.001.001zM771 289.5a1.5 1.5 0 1 1-3.001-.001 1.5 1.5 0 0 1 3.001.001zM791 289.5a1.5 1.5 0 1 1-3.001-.001 1.5 1.5 0 0 1 3.001.001zM811 289.5a1.5 1.5 0 1 1-3.001-.001 1.5 1.5 0 0 1 3.001.001zM831 289.5a1.5 1.5 0 1 1-3.001-.001 1.5 1.5 0 0 1 3.001.001zM851 289.5a1.5 1.5 0 1 1-3.001-.001 1.5 1.5 0 0 1 3.001.001zM871 289.5a1.5 1.5 0 1 1-3.001-.001 1.5 1.5 0 0 1 3.001.001zM891 289.5a1.5 1.5 0 1 1-3.001-.001 1.5 1.5 0 0 1 3.001.001zM611 309.5a1.5 1.5 0 1 1-3.001-.001 1.5 1.5 0 0 1 3.001.001zM631 309.5a1.5 1.5 0 1 1-3.001-.001 1.5 1.5 0 0 1 3.001.001zM651 309.5a1.5 1.5 0 1 1-3.001-.001 1.5 1.5 0 0 1 3.001.001zM671 309.5a1.5 1.5 0 1 1-3.001-.001 1.5 1.5 0 0 1 3.001.001zM691 309.5a1.5 1.5 0 1 1-3.001-.001 1.5 1.5 0 0 1 3.001.001zM711 309.5a1.5 1.5 0 1 1-3.001-.001 1.5 1.5 0 0 1 3.001.001zM731 309.5a1.5 1.5 0 1 1-3.001-.001 1.5 1.5 0 0 1 3.001.001zM751 309.5a1.5 1.5 0 1 1-3.001-.001 1.5 1.5 0 0 1 3.001.001zM771 309.5a1.5 1.5 0 1 1-3.001-.001 1.5 1.5 0 0 1 3.001.001zM791 309.5a1.5 1.5 0 1 1-3.001-.001 1.5 1.5 0 0 1 3.001.001zM811 309.5a1.5 1.5 0 1 1-3.001-.001 1.5 1.5 0 0 1 3.001.001zM831 309.5a1.5 1.5 0 1 1-3.001-.001 1.5 1.5 0 0 1 3.001.001zM851 309.5a1.5 1.5 0 1 1-3.001-.001 1.5 1.5 0 0 1 3.001.001zM871 309.5a1.5 1.5 0 1 1-3.001-.001 1.5 1.5 0 0 1 3.001.001zM891 309.5a1.5 1.5 0 1 1-3.001-.001 1.5 1.5 0 0 1 3.001.001zM611 329.5a1.5 1.5 0 1 1-3.001-.001 1.5 1.5 0 0 1 3.001.001zM631 329.5a1.5 1.5 0 1 1-3.001-.001 1.5 1.5 0 0 1 3.001.001zM651 329.5a1.5 1.5 0 1 1-3.001-.001 1.5 1.5 0 0 1 3.001.001zM671 329.5a1.5 1.5 0 1 1-3.001-.001 1.5 1.5 0 0 1 3.001.001zM691 329.5a1.5 1.5 0 1 1-3.001-.001 1.5 1.5 0 0 1 3.001.001zM711 329.5a1.5 1.5 0 1 1-3.001-.001 1.5 1.5 0 0 1 3.001.001zM731 329.5a1.5 1.5 0 1 1-3.001-.001 1.5 1.5 0 0 1 3.001.001zM751 329.5a1.5 1.5 0 1 1-3.001-.001 1.5 1.5 0 0 1 3.001.001zM771 329.5a1.5 1.5 0 1 1-3.001-.001 1.5 1.5 0 0 1 3.001.001zM791 329.5a1.5 1.5 0 1 1-3.001-.001 1.5 1.5 0 0 1 3.001.001zM811 329.5a1.5 1.5 0 1 1-3.001-.001 1.5 1.5 0 0 1 3.001.001zM831 329.5a1.5 1.5 0 1 1-3.001-.001 1.5 1.5 0 0 1 3.001.001zM851 329.5a1.5 1.5 0 1 1-3.001-.001 1.5 1.5 0 0 1 3.001.001zM871 329.5a1.5 1.5 0 1 1-3.001-.001 1.5 1.5 0 0 1 3.001.001zM891 329.5a1.5 1.5 0 1 1-3.001-.001 1.5 1.5 0 0 1 3.001.001zM611 349.5a1.5 1.5 0 1 1-3.001-.001 1.5 1.5 0 0 1 3.001.001zM631 349.5a1.5 1.5 0 1 1-3.001-.001 1.5 1.5 0 0 1 3.001.001zM651 349.5a1.5 1.5 0 1 1-3.001-.001 1.5 1.5 0 0 1 3.001.001zM671 349.5a1.5 1.5 0 1 1-3.001-.001 1.5 1.5 0 0 1 3.001.001zM691 349.5a1.5 1.5 0 1 1-3.001-.001 1.5 1.5 0 0 1 3.001.001zM711 349.5a1.5 1.5 0 1 1-3.001-.001 1.5 1.5 0 0 1 3.001.001zM731 349.5a1.5 1.5 0 1 1-3.001-.001 1.5 1.5 0 0 1 3.001.001zM751 349.5a1.5 1.5 0 1 1-3.001-.001 1.5 1.5 0 0 1 3.001.001zM771 349.5a1.5 1.5 0 1 1-3.001-.001 1.5 1.5 0 0 1 3.001.001zM791 349.5a1.5 1.5 0 1 1-3.001-.001 1.5 1.5 0 0 1 3.001.001zM811 349.5a1.5 1.5 0 1 1-3.001-.001 1.5 1.5 0 0 1 3.001.001zM831 349.5a1.5 1.5 0 1 1-3.001-.001 1.5 1.5 0 0 1 3.001.001zM851 349.5a1.5 1.5 0 1 1-3.001-.001 1.5 1.5 0 0 1 3.001.001zM871 349.5a1.5 1.5 0 1 1-3.001-.001 1.5 1.5 0 0 1 3.001.001zM891 349.5a1.5 1.5 0 1 1-3.001-.001 1.5 1.5 0 0 1 3.001.001zM611 369.5a1.5 1.5 0 1 1-3.001-.001 1.5 1.5 0 0 1 3.001.001zM631 369.5a1.5 1.5 0 1 1-3.001-.001 1.5 1.5 0 0 1 3.001.001zM651 369.5a1.5 1.5 0 1 1-3.001-.001 1.5 1.5 0 0 1 3.001.001zM671 369.5a1.5 1.5 0 1 1-3.001-.001 1.5 1.5 0 0 1 3.001.001zM691 369.5a1.5 1.5 0 1 1-3.001-.001 1.5 1.5 0 0 1 3.001.001zM711 369.5a1.5 1.5 0 1 1-3.001-.001 1.5 1.5 0 0 1 3.001.001zM731 369.5a1.5 1.5 0 1 1-3.001-.001 1.5 1.5 0 0 1 3.001.001zM751 369.5a1.5 1.5 0 1 1-3.001-.001 1.5 1.5 0 0 1 3.001.001zM771 369.5a1.5 1.5 0 1 1-3.001-.001 1.5 1.5 0 0 1 3.001.001zM791 369.5a1.5 1.5 0 1 1-3.001-.001 1.5 1.5 0 0 1 3.001.001zM811 369.5a1.5 1.5 0 1 1-3.001-.001 1.5 1.5 0 0 1 3.001.001zM831 369.5a1.5 1.5 0 1 1-3.001-.001 1.5 1.5 0 0 1 3.001.001zM851 369.5a1.5 1.5 0 1 1-3.001-.001 1.5 1.5 0 0 1 3.001.001zM871 369.5a1.5 1.5 0 1 1-3.001-.001 1.5 1.5 0 0 1 3.001.001zM891 369.5a1.5 1.5 0 1 1-3.001-.001 1.5 1.5 0 0 1 3.001.001zM611 389.5a1.5 1.5 0 1 1-3.001-.001 1.5 1.5 0 0 1 3.001.001zM631 389.5a1.5 1.5 0 1 1-3.001-.001 1.5 1.5 0 0 1 3.001.001zM651 389.5a1.5 1.5 0 1 1-3.001-.001 1.5 1.5 0 0 1 3.001.001zM671 389.5a1.5 1.5 0 1 1-3.001-.001 1.5 1.5 0 0 1 3.001.001zM691 389.5a1.5 1.5 0 1 1-3.001-.001 1.5 1.5 0 0 1 3.001.001zM711 389.5a1.5 1.5 0 1 1-3.001-.001 1.5 1.5 0 0 1 3.001.001zM731 389.5a1.5 1.5 0 1 1-3.001-.001 1.5 1.5 0 0 1 3.001.001zM751 389.5a1.5 1.5 0 1 1-3.001-.001 1.5 1.5 0 0 1 3.001.001zM771 389.5a1.5 1.5 0 1 1-3.001-.001 1.5 1.5 0 0 1 3.001.001zM791 389.5a1.5 1.5 0 1 1-3.001-.001 1.5 1.5 0 0 1 3.001.001zM811 389.5a1.5 1.5 0 1 1-3.001-.001 1.5 1.5 0 0 1 3.001.001zM831 389.5a1.5 1.5 0 1 1-3.001-.001 1.5 1.5 0 0 1 3.001.001zM851 389.5a1.5 1.5 0 1 1-3.001-.001 1.5 1.5 0 0 1 3.001.001zM871 389.5a1.5 1.5 0 1 1-3.001-.001 1.5 1.5 0 0 1 3.001.001zM891 389.5a1.5 1.5 0 1 1-3.001-.001 1.5 1.5 0 0 1 3.001.001zM611 409.5a1.5 1.5 0 1 1-3.001-.001 1.5 1.5 0 0 1 3.001.001zM631 409.5a1.5 1.5 0 1 1-3.001-.001 1.5 1.5 0 0 1 3.001.001zM651 409.5a1.5 1.5 0 1 1-3.001-.001 1.5 1.5 0 0 1 3.001.001zM671 409.5a1.5 1.5 0 1 1-3.001-.001 1.5 1.5 0 0 1 3.001.001zM691 409.5a1.5 1.5 0 1 1-3.001-.001 1.5 1.5 0 0 1 3.001.001zM711 409.5a1.5 1.5 0 1 1-3.001-.001 1.5 1.5 0 0 1 3.001.001zM731 409.5a1.5 1.5 0 1 1-3.001-.001 1.5 1.5 0 0 1 3.001.001zM751 409.5a1.5 1.5 0 1 1-3.001-.001 1.5 1.5 0 0 1 3.001.001zM771 409.5a1.5 1.5 0 1 1-3.001-.001 1.5 1.5 0 0 1 3.001.001zM791 409.5a1.5 1.5 0 1 1-3.001-.001 1.5 1.5 0 0 1 3.001.001zM811 409.5a1.5 1.5 0 1 1-3.001-.001 1.5 1.5 0 0 1 3.001.001zM831 409.5a1.5 1.5 0 1 1-3.001-.001 1.5 1.5 0 0 1 3.001.001zM851 409.5a1.5 1.5 0 1 1-3.001-.001 1.5 1.5 0 0 1 3.001.001zM871 409.5a1.5 1.5 0 1 1-3.001-.001 1.5 1.5 0 0 1 3.001.001zM891 409.5a1.5 1.5 0 1 1-3.001-.001 1.5 1.5 0 0 1 3.001.001zM611 429.5a1.5 1.5 0 1 1-3.001-.001 1.5 1.5 0 0 1 3.001.001zM631 429.5a1.5 1.5 0 1 1-3.001-.001 1.5 1.5 0 0 1 3.001.001zM651 429.5a1.5 1.5 0 1 1-3.001-.001 1.5 1.5 0 0 1 3.001.001zM671 429.5a1.5 1.5 0 1 1-3.001-.001 1.5 1.5 0 0 1 3.001.001zM691 429.5a1.5 1.5 0 1 1-3.001-.001 1.5 1.5 0 0 1 3.001.001zM711 429.5a1.5 1.5 0 1 1-3.001-.001 1.5 1.5 0 0 1 3.001.001zM731 429.5a1.5 1.5 0 1 1-3.001-.001 1.5 1.5 0 0 1 3.001.001zM751 429.5a1.5 1.5 0 1 1-3.001-.001 1.5 1.5 0 0 1 3.001.001zM771 429.5a1.5 1.5 0 1 1-3.001-.001 1.5 1.5 0 0 1 3.001.001zM791 429.5a1.5 1.5 0 1 1-3.001-.001 1.5 1.5 0 0 1 3.001.001zM811 429.5a1.5 1.5 0 1 1-3.001-.001 1.5 1.5 0 0 1 3.001.001zM831 429.5a1.5 1.5 0 1 1-3.001-.001 1.5 1.5 0 0 1 3.001.001zM851 429.5a1.5 1.5 0 1 1-3.001-.001 1.5 1.5 0 0 1 3.001.001zM871 429.5a1.5 1.5 0 1 1-3.001-.001 1.5 1.5 0 0 1 3.001.001zM891 429.5a1.5 1.5 0 1 1-3.001-.001 1.5 1.5 0 0 1 3.001.001zM611 449.5a1.5 1.5 0 1 1-3.001-.001 1.5 1.5 0 0 1 3.001.001zM631 449.5a1.5 1.5 0 1 1-3.001-.001 1.5 1.5 0 0 1 3.001.001zM651 449.5a1.5 1.5 0 1 1-3.001-.001 1.5 1.5 0 0 1 3.001.001zM671 449.5a1.5 1.5 0 1 1-3.001-.001 1.5 1.5 0 0 1 3.001.001zM691 449.5a1.5 1.5 0 1 1-3.001-.001 1.5 1.5 0 0 1 3.001.001zM711 449.5a1.5 1.5 0 1 1-3.001-.001 1.5 1.5 0 0 1 3.001.001zM731 449.5a1.5 1.5 0 1 1-3.001-.001 1.5 1.5 0 0 1 3.001.001zM751 449.5a1.5 1.5 0 1 1-3.001-.001 1.5 1.5 0 0 1 3.001.001zM771 449.5a1.5 1.5 0 1 1-3.001-.001 1.5 1.5 0 0 1 3.001.001zM791 449.5a1.5 1.5 0 1 1-3.001-.001 1.5 1.5 0 0 1 3.001.001zM811 449.5a1.5 1.5 0 1 1-3.001-.001 1.5 1.5 0 0 1 3.001.001zM831 449.5a1.5 1.5 0 1 1-3.001-.001 1.5 1.5 0 0 1 3.001.001zM851 449.5a1.5 1.5 0 1 1-3.001-.001 1.5 1.5 0 0 1 3.001.001zM871 449.5a1.5 1.5 0 1 1-3.001-.001 1.5 1.5 0 0 1 3.001.001zM891 449.5a1.5 1.5 0 1 1-3.001-.001 1.5 1.5 0 0 1 3.001.001zM611 469.5a1.5 1.5 0 1 1-3.001-.001 1.5 1.5 0 0 1 3.001.001zM631 469.5a1.5 1.5 0 1 1-3.001-.001 1.5 1.5 0 0 1 3.001.001zM651 469.5a1.5 1.5 0 1 1-3.001-.001 1.5 1.5 0 0 1 3.001.001zM671 469.5a1.5 1.5 0 1 1-3.001-.001 1.5 1.5 0 0 1 3.001.001zM691 469.5a1.5 1.5 0 1 1-3.001-.001 1.5 1.5 0 0 1 3.001.001zM711 469.5a1.5 1.5 0 1 1-3.001-.001 1.5 1.5 0 0 1 3.001.001zM731 469.5a1.5 1.5 0 1 1-3.001-.001 1.5 1.5 0 0 1 3.001.001zM751 469.5a1.5 1.5 0 1 1-3.001-.001 1.5 1.5 0 0 1 3.001.001zM771 469.5a1.5 1.5 0 1 1-3.001-.001 1.5 1.5 0 0 1 3.001.001zM791 469.5a1.5 1.5 0 1 1-3.001-.001 1.5 1.5 0 0 1 3.001.001zM811 469.5a1.5 1.5 0 1 1-3.001-.001 1.5 1.5 0 0 1 3.001.001zM831 469.5a1.5 1.5 0 1 1-3.001-.001 1.5 1.5 0 0 1 3.001.001zM851 469.5a1.5 1.5 0 1 1-3.001-.001 1.5 1.5 0 0 1 3.001.001zM871 469.5a1.5 1.5 0 1 1-3.001-.001 1.5 1.5 0 0 1 3.001.001zM891 469.5a1.5 1.5 0 1 1-3.001-.001 1.5 1.5 0 0 1 3.001.001zM911 249.5a1.5 1.5 0 1 1-3.001-.001 1.5 1.5 0 0 1 3.001.001zM931 249.5a1.5 1.5 0 1 1-3.001-.001 1.5 1.5 0 0 1 3.001.001zM951 249.5a1.5 1.5 0 1 1-3.001-.001 1.5 1.5 0 0 1 3.001.001zM971 249.5a1.5 1.5 0 1 1-3.001-.001 1.5 1.5 0 0 1 3.001.001zM991 249.5a1.5 1.5 0 1 1-3.001-.001 1.5 1.5 0 0 1 3.001.001zM1011 249.5a1.5 1.5 0 1 1-2.999.001 1.5 1.5 0 0 1 2.999-.001zM1031 249.5a1.5 1.5 0 1 1-2.999.001 1.5 1.5 0 0 1 2.999-.001zM1051 249.5a1.5 1.5 0 1 1-2.999.001 1.5 1.5 0 0 1 2.999-.001zM1071 249.5a1.5 1.5 0 1 1-2.999.001 1.5 1.5 0 0 1 2.999-.001zM1091 249.5a1.5 1.5 0 1 1-2.999.001 1.5 1.5 0 0 1 2.999-.001zM911 269.5a1.5 1.5 0 1 1-3.001-.001 1.5 1.5 0 0 1 3.001.001zM931 269.5a1.5 1.5 0 1 1-3.001-.001 1.5 1.5 0 0 1 3.001.001zM951 269.5a1.5 1.5 0 1 1-3.001-.001 1.5 1.5 0 0 1 3.001.001zM971 269.5a1.5 1.5 0 1 1-3.001-.001 1.5 1.5 0 0 1 3.001.001zM991 269.5a1.5 1.5 0 1 1-3.001-.001 1.5 1.5 0 0 1 3.001.001zM1011 269.5a1.5 1.5 0 1 1-2.999.001 1.5 1.5 0 0 1 2.999-.001zM1031 269.5a1.5 1.5 0 1 1-2.999.001 1.5 1.5 0 0 1 2.999-.001zM1051 269.5a1.5 1.5 0 1 1-2.999.001 1.5 1.5 0 0 1 2.999-.001zM1071 269.5a1.5 1.5 0 1 1-2.999.001 1.5 1.5 0 0 1 2.999-.001zM1091 269.5a1.5 1.5 0 1 1-2.999.001 1.5 1.5 0 0 1 2.999-.001zM911 289.5a1.5 1.5 0 1 1-3.001-.001 1.5 1.5 0 0 1 3.001.001zM931 289.5a1.5 1.5 0 1 1-3.001-.001 1.5 1.5 0 0 1 3.001.001zM951 289.5a1.5 1.5 0 1 1-3.001-.001 1.5 1.5 0 0 1 3.001.001zM971 289.5a1.5 1.5 0 1 1-3.001-.001 1.5 1.5 0 0 1 3.001.001zM991 289.5a1.5 1.5 0 1 1-3.001-.001 1.5 1.5 0 0 1 3.001.001zM1011 289.5a1.5 1.5 0 1 1-2.999.001 1.5 1.5 0 0 1 2.999-.001zM1031 289.5a1.5 1.5 0 1 1-2.999.001 1.5 1.5 0 0 1 2.999-.001zM1051 289.5a1.5 1.5 0 1 1-2.999.001 1.5 1.5 0 0 1 2.999-.001zM1071 289.5a1.5 1.5 0 1 1-2.999.001 1.5 1.5 0 0 1 2.999-.001zM1091 289.5a1.5 1.5 0 1 1-2.999.001 1.5 1.5 0 0 1 2.999-.001zM911 309.5a1.5 1.5 0 1 1-3.001-.001 1.5 1.5 0 0 1 3.001.001zM931 309.5a1.5 1.5 0 1 1-3.001-.001 1.5 1.5 0 0 1 3.001.001zM951 309.5a1.5 1.5 0 1 1-3.001-.001 1.5 1.5 0 0 1 3.001.001zM971 309.5a1.5 1.5 0 1 1-3.001-.001 1.5 1.5 0 0 1 3.001.001zM991 309.5a1.5 1.5 0 1 1-3.001-.001 1.5 1.5 0 0 1 3.001.001zM1011 309.5a1.5 1.5 0 1 1-2.999.001 1.5 1.5 0 0 1 2.999-.001zM1031 309.5a1.5 1.5 0 1 1-2.999.001 1.5 1.5 0 0 1 2.999-.001zM1051 309.5a1.5 1.5 0 1 1-2.999.001 1.5 1.5 0 0 1 2.999-.001zM1071 309.5a1.5 1.5 0 1 1-2.999.001 1.5 1.5 0 0 1 2.999-.001zM1091 309.5a1.5 1.5 0 1 1-2.999.001 1.5 1.5 0 0 1 2.999-.001zM911 329.5a1.5 1.5 0 1 1-3.001-.001 1.5 1.5 0 0 1 3.001.001zM931 329.5a1.5 1.5 0 1 1-3.001-.001 1.5 1.5 0 0 1 3.001.001zM951 329.5a1.5 1.5 0 1 1-3.001-.001 1.5 1.5 0 0 1 3.001.001zM971 329.5a1.5 1.5 0 1 1-3.001-.001 1.5 1.5 0 0 1 3.001.001zM991 329.5a1.5 1.5 0 1 1-3.001-.001 1.5 1.5 0 0 1 3.001.001zM1011 329.5a1.5 1.5 0 1 1-2.999.001 1.5 1.5 0 0 1 2.999-.001zM1031 329.5a1.5 1.5 0 1 1-2.999.001 1.5 1.5 0 0 1 2.999-.001zM1051 329.5a1.5 1.5 0 1 1-2.999.001 1.5 1.5 0 0 1 2.999-.001zM1071 329.5a1.5 1.5 0 1 1-2.999.001 1.5 1.5 0 0 1 2.999-.001zM1091 329.5a1.5 1.5 0 1 1-2.999.001 1.5 1.5 0 0 1 2.999-.001zM911 349.5a1.5 1.5 0 1 1-3.001-.001 1.5 1.5 0 0 1 3.001.001zM931 349.5a1.5 1.5 0 1 1-3.001-.001 1.5 1.5 0 0 1 3.001.001zM951 349.5a1.5 1.5 0 1 1-3.001-.001 1.5 1.5 0 0 1 3.001.001zM971 349.5a1.5 1.5 0 1 1-3.001-.001 1.5 1.5 0 0 1 3.001.001zM991 349.5a1.5 1.5 0 1 1-3.001-.001 1.5 1.5 0 0 1 3.001.001zM1011 349.5a1.5 1.5 0 1 1-2.999.001 1.5 1.5 0 0 1 2.999-.001zM1031 349.5a1.5 1.5 0 1 1-2.999.001 1.5 1.5 0 0 1 2.999-.001zM1051 349.5a1.5 1.5 0 1 1-2.999.001 1.5 1.5 0 0 1 2.999-.001zM1071 349.5a1.5 1.5 0 1 1-2.999.001 1.5 1.5 0 0 1 2.999-.001zM1091 349.5a1.5 1.5 0 1 1-2.999.001 1.5 1.5 0 0 1 2.999-.001zM911 369.5a1.5 1.5 0 1 1-3.001-.001 1.5 1.5 0 0 1 3.001.001zM931 369.5a1.5 1.5 0 1 1-3.001-.001 1.5 1.5 0 0 1 3.001.001zM951 369.5a1.5 1.5 0 1 1-3.001-.001 1.5 1.5 0 0 1 3.001.001zM971 369.5a1.5 1.5 0 1 1-3.001-.001 1.5 1.5 0 0 1 3.001.001zM991 369.5a1.5 1.5 0 1 1-3.001-.001 1.5 1.5 0 0 1 3.001.001zM1011 369.5a1.5 1.5 0 1 1-2.999.001 1.5 1.5 0 0 1 2.999-.001zM1031 369.5a1.5 1.5 0 1 1-2.999.001 1.5 1.5 0 0 1 2.999-.001zM1051 369.5a1.5 1.5 0 1 1-2.999.001 1.5 1.5 0 0 1 2.999-.001zM1071 369.5a1.5 1.5 0 1 1-2.999.001 1.5 1.5 0 0 1 2.999-.001zM1091 369.5a1.5 1.5 0 1 1-2.999.001 1.5 1.5 0 0 1 2.999-.001zM911 389.5a1.5 1.5 0 1 1-3.001-.001 1.5 1.5 0 0 1 3.001.001zM931 389.5a1.5 1.5 0 1 1-3.001-.001 1.5 1.5 0 0 1 3.001.001zM951 389.5a1.5 1.5 0 1 1-3.001-.001 1.5 1.5 0 0 1 3.001.001zM971 389.5a1.5 1.5 0 1 1-3.001-.001 1.5 1.5 0 0 1 3.001.001zM991 389.5a1.5 1.5 0 1 1-3.001-.001 1.5 1.5 0 0 1 3.001.001zM1011 389.5a1.5 1.5 0 1 1-2.999.001 1.5 1.5 0 0 1 2.999-.001zM1031 389.5a1.5 1.5 0 1 1-2.999.001 1.5 1.5 0 0 1 2.999-.001zM1051 389.5a1.5 1.5 0 1 1-2.999.001 1.5 1.5 0 0 1 2.999-.001zM1071 389.5a1.5 1.5 0 1 1-2.999.001 1.5 1.5 0 0 1 2.999-.001zM1091 389.5a1.5 1.5 0 1 1-2.999.001 1.5 1.5 0 0 1 2.999-.001zM911 409.5a1.5 1.5 0 1 1-3.001-.001 1.5 1.5 0 0 1 3.001.001zM931 409.5a1.5 1.5 0 1 1-3.001-.001 1.5 1.5 0 0 1 3.001.001zM951 409.5a1.5 1.5 0 1 1-3.001-.001 1.5 1.5 0 0 1 3.001.001zM971 409.5a1.5 1.5 0 1 1-3.001-.001 1.5 1.5 0 0 1 3.001.001zM991 409.5a1.5 1.5 0 1 1-3.001-.001 1.5 1.5 0 0 1 3.001.001zM1011 409.5a1.5 1.5 0 1 1-2.999.001 1.5 1.5 0 0 1 2.999-.001zM1031 409.5a1.5 1.5 0 1 1-2.999.001 1.5 1.5 0 0 1 2.999-.001zM1051 409.5a1.5 1.5 0 1 1-2.999.001 1.5 1.5 0 0 1 2.999-.001zM1071 409.5a1.5 1.5 0 1 1-2.999.001 1.5 1.5 0 0 1 2.999-.001zM1091 409.5a1.5 1.5 0 1 1-2.999.001 1.5 1.5 0 0 1 2.999-.001zM911 429.5a1.5 1.5 0 1 1-3.001-.001 1.5 1.5 0 0 1 3.001.001zM931 429.5a1.5 1.5 0 1 1-3.001-.001 1.5 1.5 0 0 1 3.001.001zM951 429.5a1.5 1.5 0 1 1-3.001-.001 1.5 1.5 0 0 1 3.001.001zM971 429.5a1.5 1.5 0 1 1-3.001-.001 1.5 1.5 0 0 1 3.001.001zM991 429.5a1.5 1.5 0 1 1-3.001-.001 1.5 1.5 0 0 1 3.001.001zM1011 429.5a1.5 1.5 0 1 1-2.999.001 1.5 1.5 0 0 1 2.999-.001zM1031 429.5a1.5 1.5 0 1 1-2.999.001 1.5 1.5 0 0 1 2.999-.001zM1051 429.5a1.5 1.5 0 1 1-2.999.001 1.5 1.5 0 0 1 2.999-.001zM1071 429.5a1.5 1.5 0 1 1-2.999.001 1.5 1.5 0 0 1 2.999-.001zM1091 429.5a1.5 1.5 0 1 1-2.999.001 1.5 1.5 0 0 1 2.999-.001zM911 449.5a1.5 1.5 0 1 1-3.001-.001 1.5 1.5 0 0 1 3.001.001zM931 449.5a1.5 1.5 0 1 1-3.001-.001 1.5 1.5 0 0 1 3.001.001zM951 449.5a1.5 1.5 0 1 1-3.001-.001 1.5 1.5 0 0 1 3.001.001zM971 449.5a1.5 1.5 0 1 1-3.001-.001 1.5 1.5 0 0 1 3.001.001zM991 449.5a1.5 1.5 0 1 1-3.001-.001 1.5 1.5 0 0 1 3.001.001zM1011 449.5a1.5 1.5 0 1 1-2.999.001 1.5 1.5 0 0 1 2.999-.001zM1031 449.5a1.5 1.5 0 1 1-2.999.001 1.5 1.5 0 0 1 2.999-.001zM1051 449.5a1.5 1.5 0 1 1-2.999.001 1.5 1.5 0 0 1 2.999-.001zM1071 449.5a1.5 1.5 0 1 1-2.999.001 1.5 1.5 0 0 1 2.999-.001zM1091 449.5a1.5 1.5 0 1 1-2.999.001 1.5 1.5 0 0 1 2.999-.001zM911 469.5a1.5 1.5 0 1 1-3.001-.001 1.5 1.5 0 0 1 3.001.001zM931 469.5a1.5 1.5 0 1 1-3.001-.001 1.5 1.5 0 0 1 3.001.001zM951 469.5a1.5 1.5 0 1 1-3.001-.001 1.5 1.5 0 0 1 3.001.001zM971 469.5a1.5 1.5 0 1 1-3.001-.001 1.5 1.5 0 0 1 3.001.001zM991 469.5a1.5 1.5 0 1 1-3.001-.001 1.5 1.5 0 0 1 3.001.001zM1011 469.5a1.5 1.5 0 1 1-2.999.001 1.5 1.5 0 0 1 2.999-.001zM1031 469.5a1.5 1.5 0 1 1-2.999.001 1.5 1.5 0 0 1 2.999-.001zM1051 469.5a1.5 1.5 0 1 1-2.999.001 1.5 1.5 0 0 1 2.999-.001zM1071 469.5a1.5 1.5 0 1 1-2.999.001 1.5 1.5 0 0 1 2.999-.001zM1091 469.5a1.5 1.5 0 1 1-2.999.001 1.5 1.5 0 0 1 2.999-.001zM11 489.5a1.5 1.5 0 1 1-3 0 1.5 1.5 0 0 1 3 0zM31 489.5a1.5 1.5 0 1 1-3 0 1.5 1.5 0 0 1 3 0zM51 489.5a1.5 1.5 0 1 1-3 0 1.5 1.5 0 0 1 3 0zM71 489.5a1.5 1.5 0 1 1-3 0 1.5 1.5 0 0 1 3 0zM91 489.5a1.5 1.5 0 1 1-3 0 1.5 1.5 0 0 1 3 0zM111 489.5a1.5 1.5 0 1 1-3.001-.001 1.5 1.5 0 0 1 3.001.001zM131 489.5a1.5 1.5 0 1 1-3.001-.001 1.5 1.5 0 0 1 3.001.001zM151 489.5a1.5 1.5 0 1 1-3.001-.001 1.5 1.5 0 0 1 3.001.001zM171 489.5a1.5 1.5 0 1 1-3.001-.001 1.5 1.5 0 0 1 3.001.001zM191 489.5a1.5 1.5 0 1 1-3.001-.001 1.5 1.5 0 0 1 3.001.001zM211 489.5a1.5 1.5 0 1 1-3.001-.001 1.5 1.5 0 0 1 3.001.001zM231 489.5a1.5 1.5 0 1 1-3.001-.001 1.5 1.5 0 0 1 3.001.001zM251 489.5a1.5 1.5 0 1 1-3.001-.001 1.5 1.5 0 0 1 3.001.001zM271 489.5a1.5 1.5 0 1 1-3.001-.001 1.5 1.5 0 0 1 3.001.001zM291 489.5a1.5 1.5 0 1 1-3.001-.001 1.5 1.5 0 0 1 3.001.001zM311 489.5a1.5 1.5 0 1 1-3.001-.001 1.5 1.5 0 0 1 3.001.001zM331 489.5a1.5 1.5 0 1 1-3.001-.001 1.5 1.5 0 0 1 3.001.001zM351 489.5a1.5 1.5 0 1 1-3.001-.001 1.5 1.5 0 0 1 3.001.001zM371 489.5a1.5 1.5 0 1 1-3.001-.001 1.5 1.5 0 0 1 3.001.001zM391 489.5a1.5 1.5 0 1 1-3.001-.001 1.5 1.5 0 0 1 3.001.001zM411 489.5a1.5 1.5 0 1 1-3.001-.001 1.5 1.5 0 0 1 3.001.001zM431 489.5a1.5 1.5 0 1 1-3.001-.001 1.5 1.5 0 0 1 3.001.001zM451 489.5a1.5 1.5 0 1 1-3.001-.001 1.5 1.5 0 0 1 3.001.001zM471 489.5a1.5 1.5 0 1 1-3.001-.001 1.5 1.5 0 0 1 3.001.001zM491 489.5a1.5 1.5 0 1 1-3.001-.001 1.5 1.5 0 0 1 3.001.001zM511 489.5a1.5 1.5 0 1 1-3.001-.001 1.5 1.5 0 0 1 3.001.001zM531 489.5a1.5 1.5 0 1 1-3.001-.001 1.5 1.5 0 0 1 3.001.001zM551 489.5a1.5 1.5 0 1 1-3.001-.001 1.5 1.5 0 0 1 3.001.001zM571 489.5a1.5 1.5 0 1 1-3.001-.001 1.5 1.5 0 0 1 3.001.001zM591 489.5a1.5 1.5 0 1 1-3.001-.001 1.5 1.5 0 0 1 3.001.001zM611 489.5a1.5 1.5 0 1 1-3.001-.001 1.5 1.5 0 0 1 3.001.001zM631 489.5a1.5 1.5 0 1 1-3.001-.001 1.5 1.5 0 0 1 3.001.001zM651 489.5a1.5 1.5 0 1 1-3.001-.001 1.5 1.5 0 0 1 3.001.001zM671 489.5a1.5 1.5 0 1 1-3.001-.001 1.5 1.5 0 0 1 3.001.001zM691 489.5a1.5 1.5 0 1 1-3.001-.001 1.5 1.5 0 0 1 3.001.001zM711 489.5a1.5 1.5 0 1 1-3.001-.001 1.5 1.5 0 0 1 3.001.001zM731 489.5a1.5 1.5 0 1 1-3.001-.001 1.5 1.5 0 0 1 3.001.001zM751 489.5a1.5 1.5 0 1 1-3.001-.001 1.5 1.5 0 0 1 3.001.001zM771 489.5a1.5 1.5 0 1 1-3.001-.001 1.5 1.5 0 0 1 3.001.001zM791 489.5a1.5 1.5 0 1 1-3.001-.001 1.5 1.5 0 0 1 3.001.001zM811 489.5a1.5 1.5 0 1 1-3.001-.001 1.5 1.5 0 0 1 3.001.001zM831 489.5a1.5 1.5 0 1 1-3.001-.001 1.5 1.5 0 0 1 3.001.001zM851 489.5a1.5 1.5 0 1 1-3.001-.001 1.5 1.5 0 0 1 3.001.001zM871 489.5a1.5 1.5 0 1 1-3.001-.001 1.5 1.5 0 0 1 3.001.001zM891 489.5a1.5 1.5 0 1 1-3.001-.001 1.5 1.5 0 0 1 3.001.001zM911 489.5a1.5 1.5 0 1 1-3.001-.001 1.5 1.5 0 0 1 3.001.001zM931 489.5a1.5 1.5 0 1 1-3.001-.001 1.5 1.5 0 0 1 3.001.001zM951 489.5a1.5 1.5 0 1 1-3.001-.001 1.5 1.5 0 0 1 3.001.001zM971 489.5a1.5 1.5 0 1 1-3.001-.001 1.5 1.5 0 0 1 3.001.001zM991 489.5a1.5 1.5 0 1 1-3.001-.001 1.5 1.5 0 0 1 3.001.001zM1011 489.5a1.5 1.5 0 1 1-2.999.001 1.5 1.5 0 0 1 2.999-.001zM1031 489.5a1.5 1.5 0 1 1-2.999.001 1.5 1.5 0 0 1 2.999-.001zM1051 489.5a1.5 1.5 0 1 1-2.999.001 1.5 1.5 0 0 1 2.999-.001zM1071 489.5a1.5 1.5 0 1 1-2.999.001 1.5 1.5 0 0 1 2.999-.001zM1091 489.5a1.5 1.5 0 1 1-2.999.001 1.5 1.5 0 0 1 2.999-.001z"/></g><defs><linearGradient id="paint0_linear" x1="1100" x2="-48.531" y2="99.823" gradientUnits="userSpaceOnUse"><stop stop-color="#49CCF9"/><stop offset="1" stop-color="#8930FD"/></linearGradient><linearGradient id="paint1_linear" x1="1100" x2="-48.531" y2="99.823" gradientUnits="userSpaceOnUse"><stop stop-color="#49CCF9"/><stop offset="1" stop-color="#8930FD"/></linearGradient></defs></svg>