<svg xmlns="http://www.w3.org/2000/svg" viewBox="0 0 331.4 105"><g data-name="Layer 2"><g data-name="Layer 1"><g data-name="Logo Horiz Color"><g data-name="unito logo"><path d="M135.9 59.8c0 3.2 0 7.2 2.3 10.3a10.53 10.53 0 008.4 3.6 10.67 10.67 0 008.4-3.6c2.3-3 2.3-6.9 2.3-10.3V32h8.2v28.8c0 5.9-.6 10.3-4.4 14.3-4.2 4.6-9.9 5.9-14.6 5.9a20.29 20.29 0 01-14.6-5.9c-3.8-4.2-4.4-8.6-4.4-14.3V32h8.5v27.8M233 78h7.6V30.7H233zm3.9-71a5.78 5.78 0 015.5 5.9 5.78 5.78 0 01-5.5 5.9 5.7 5.7 0 01-5.5-5.9 5.7 5.7 0 015.5-5.9zm30.5 30.9V78h-8V37.9h-5v-7.7h5V13h8v17.2h8v7.7h-8m-89 41.1V50.2c0-5.9.6-10.3 4.4-14.3 4.2-4.6 9.9-5.9 14.6-5.9a20.29 20.29 0 0114.6 5.9c3.8 4.2 4.4 8.6 4.4 14.3V79h-8.2V51.2c0-3.2 0-7.2-2.3-10.3a10.53 10.53 0 00-8.4-3.6 10.67 10.67 0 00-8.4 3.6c-2.3 3.1-2.3 6.9-2.3 10.3V79zm111.4-23.9c0 11.8 8.1 17.7 16.5 17.7s16.5-6.1 16.5-17.7c0-11.8-7.9-17.7-16.5-17.7s-16.5 6.1-16.5 17.7zm-8.4 0c0-14.4 10.5-25.1 25-25.1s25 10.6 25 25.1-10.7 24.9-25 24.9c-14.3.2-25-10.4-25-24.9z" fill="#0c0c0c"/><path d="M83.9 50.6l-.1 12a2.31 2.31 0 01-2.2 2.3 2.31 2.31 0 01-2.2-2.3l.1-12a12.4 12.4 0 00-12.4-12.4c-6.2 0-11.7 5.4-12.2 12.1v.5l-.2 4.6v.3a16.8 16.8 0 11-33.6-.3.09.09 0 00.1-.1h-.1V43.8a2.14 2.14 0 012.18-2.1 2.14 2.14 0 012.2 2.08l-.1 11.5a12.4 12.4 0 1024.8 0v-.4l.2-4.2v-.5C51 41.1 58.3 33.9 67 33.9a16.86 16.86 0 0116.8 16.9c.1-.3.1-.3.1-.2zM52.7 0A52.5 52.5 0 10105 52.7v-.2A52.4 52.4 0 0052.72 0z" fill="#3aafa9"/></g></g></g></g></svg>